<?xml version="1.0" encoding="UTF-8"?>
<svg id="Layer_2" data-name="Layer 2" xmlns="http://www.w3.org/2000/svg" viewBox="0 0 143.11 150.05">
  <defs>
    <style>
      .cls-1 {
        fill: #325858;
        stroke-width: 0px;
      }
    </style>
  </defs>
  <g id="Layer_1-2" data-name="Layer 1">
    <g>
      <g>
        <path class="cls-1" d="M97.57,46.36c-.11.69.22,1.44.71,1.91.79.76,1.42.46,2,1.15.37.44.59,1.43,1.98,1.86,1.35.26,2.51-.48,2.9-1.8.31-1.04-.35-1.35-.53-1.58-.44-.56.37-1.5.33-2.65-.06-1.54-1.54-2.57-3.1-1.88-.52.23-.93.63-1.43.9-.66.37-.69.04-1.18.05-.9.02-1.56,1.26-1.68,2.03Z"/>
        <path class="cls-1" d="M102.98,42.24c.7.41,2-.13,2.51-.7.06.04-.44.51-.54,1.24-.08.6.21,1.38.77,1.66.69.23,1.87-.14,2.37-.64,1.14-1.15.97-3.38-.73-3.37-.66,0-1.23.4-1.68.85.94-1.63.03-3.49-1.74-2.81-.92.36-1.56,1.35-1.59,2.32-.01.48.2,1.2.63,1.45Z"/>
        <path class="cls-1" d="M108.84,44.44c-.78-.53-2.27-.04-2.86.61-1.19,1.31-.52,3.28,1.33,3.02,1.93-.27,2.69-2.83,1.53-3.63Z"/>
        <path class="cls-1" d="M101.54,39.76c-1.33-.97-3.28,1-2.88,2.61.44,1.82,2.89,1.28,3.4-.44.18-.62.04-1.76-.52-2.16Z"/>
      </g>
      <g>
        <path class="cls-1" d="M120.95,41.53c-.11.69.22,1.44.71,1.91.79.76,1.42.46,2,1.15.37.44.59,1.43,1.98,1.86,1.35.26,2.51-.48,2.9-1.8.31-1.04-.35-1.35-.53-1.58-.44-.56.37-1.5.33-2.65-.06-1.54-1.54-2.57-3.1-1.88-.52.23-.93.63-1.43.9-.66.37-.69.04-1.18.05-.9.02-1.56,1.26-1.68,2.03Z"/>
        <path class="cls-1" d="M126.35,37.4c.7.41,2-.13,2.51-.7.06.04-.44.51-.54,1.24-.08.6.21,1.38.77,1.66.69.23,1.87-.14,2.37-.64,1.14-1.15.97-3.38-.73-3.37-.66,0-1.23.4-1.68.85.94-1.63.03-3.49-1.74-2.81-.92.36-1.56,1.35-1.59,2.32-.01.48.2,1.2.63,1.45Z"/>
        <path class="cls-1" d="M132.21,39.6c-.78-.53-2.27-.04-2.86.61-1.19,1.31-.52,3.28,1.33,3.02,1.93-.27,2.69-2.83,1.53-3.63Z"/>
        <path class="cls-1" d="M124.92,34.92c-1.33-.97-3.28,1-2.88,2.61.44,1.82,2.89,1.28,3.4-.44.18-.62.04-1.76-.52-2.16Z"/>
      </g>
      <g>
        <path class="cls-1" d="M115.6,22.36c-.11.69.22,1.44.71,1.91.79.76,1.42.46,2,1.15.37.44.59,1.43,1.98,1.86,1.35.26,2.51-.48,2.9-1.8.31-1.04-.35-1.35-.53-1.58-.44-.56.37-1.5.33-2.65-.06-1.54-1.54-2.57-3.1-1.88-.52.23-.93.63-1.43.9-.66.37-.69.04-1.18.05-.9.02-1.56,1.26-1.68,2.03Z"/>
        <path class="cls-1" d="M121.01,18.23c.7.41,2-.13,2.51-.7.06.04-.44.51-.54,1.24-.08.6.21,1.38.77,1.66.69.23,1.87-.14,2.37-.64,1.14-1.15.97-3.38-.73-3.37-.66,0-1.23.4-1.68.85.94-1.63.03-3.49-1.74-2.81-.92.36-1.56,1.35-1.59,2.32-.01.48.2,1.2.63,1.45Z"/>
        <path class="cls-1" d="M126.87,20.43c-.78-.53-2.27-.04-2.86.61-1.19,1.31-.52,3.28,1.33,3.02,1.93-.27,2.69-2.83,1.53-3.63Z"/>
        <path class="cls-1" d="M119.58,15.75c-1.33-.97-3.28,1-2.88,2.61.44,1.82,2.89,1.28,3.4-.44.18-.62.04-1.76-.52-2.16Z"/>
      </g>
      <g>
        <path class="cls-1" d="M102.63,92.79c.17.67.78,1.23,1.42,1.46,1.03.38,1.49-.15,2.29.25.51.26,1.11,1.08,2.56.91,1.35-.3,2.11-1.44,1.94-2.81-.13-1.07-.86-1.1-1.12-1.23-.63-.33-.27-1.53-.76-2.56-.67-1.39-2.44-1.74-3.59-.48-.38.42-.6.95-.94,1.4-.46.6-.62.32-1.06.52-.82.38-.92,1.78-.72,2.54Z"/>
        <path class="cls-1" d="M105.93,86.85c.81.09,1.78-.92,2.01-1.65.07,0-.2.64,0,1.35.17.58.74,1.18,1.37,1.21.72-.07,1.66-.88,1.91-1.54.58-1.51-.47-3.48-2.02-2.79-.6.27-.97.86-1.19,1.45.21-1.88-1.37-3.21-2.72-1.87-.7.69-.89,1.86-.53,2.76.18.44.66,1.02,1.16,1.08Z"/>
        <path class="cls-1" d="M112.18,86.52c-.93-.18-2.09.88-2.37,1.7-.57,1.68.83,3.22,2.43,2.23,1.66-1.02,1.34-3.67-.05-3.94Z"/>
        <path class="cls-1" d="M103.62,85.15c-1.61-.35-2.6,2.23-1.6,3.54,1.14,1.49,3.16,0,2.94-1.77-.08-.64-.67-1.62-1.34-1.77Z"/>
      </g>
      <g>
        <path class="cls-1" d="M86.32,73.16c0,.69.45,1.38,1.01,1.77.9.62,1.48.22,2.15.81.43.38.81,1.32,2.25,1.52,1.38.04,2.4-.88,2.58-2.25.14-1.07-.56-1.28-.78-1.47-.53-.48.12-1.54-.11-2.67-.3-1.51-1.93-2.29-3.36-1.35-.48.31-.82.77-1.26,1.12-.6.47-.68.15-1.16.24-.88.16-1.33,1.5-1.33,2.28Z"/>
        <path class="cls-1" d="M90.98,68.22c.76.29,1.95-.45,2.36-1.1.06.03-.35.57-.33,1.31.02.61.43,1.33,1.03,1.51.71.11,1.82-.44,2.23-1.02.94-1.32.41-3.49-1.26-3.21-.65.11-1.15.59-1.52,1.11.67-1.76-.53-3.45-2.17-2.49-.85.5-1.33,1.58-1.2,2.55.06.47.39,1.15.86,1.33Z"/>
        <path class="cls-1" d="M97.12,69.45c-.85-.4-2.24.33-2.72,1.06-.97,1.48.01,3.32,1.8,2.77,1.86-.58,2.2-3.23.92-3.83Z"/>
        <path class="cls-1" d="M89.17,66c-1.47-.74-3.07,1.52-2.43,3.04.73,1.72,3.06.79,3.29-.99.08-.64-.24-1.74-.86-2.05Z"/>
      </g>
      <g>
        <path class="cls-1" d="M98.73,119.79c.26.65.92,1.12,1.59,1.28,1.07.25,1.46-.33,2.3-.03.54.19,1.24.93,2.65.59,1.3-.47,1.91-1.7,1.57-3.03-.26-1.05-.99-.98-1.26-1.08-.67-.25-.45-1.48-1.08-2.44-.84-1.29-2.64-1.43-3.63-.03-.33.46-.48,1.02-.76,1.5-.38.66-.57.39-.99.65-.76.47-.69,1.88-.4,2.61Z"/>
        <path class="cls-1" d="M101.26,113.48c.82,0,1.65-1.14,1.79-1.89.07,0-.12.66.17,1.34.24.56.88,1.08,1.51,1.03.71-.16,1.54-1.07,1.71-1.76.39-1.57-.9-3.4-2.35-2.52-.57.34-.86.97-1,1.59-.03-1.89-1.76-3.02-2.93-1.52-.61.78-.66,1.96-.18,2.81.23.42.78.93,1.28.92Z"/>
        <path class="cls-1" d="M107.42,112.37c-.94-.06-1.97,1.13-2.14,1.99-.36,1.73,1.23,3.09,2.69,1.91,1.52-1.22.87-3.81-.54-3.9Z"/>
        <path class="cls-1" d="M98.76,112.08c-1.64-.15-2.3,2.54-1.14,3.71,1.31,1.33,3.14-.38,2.7-2.12-.16-.63-.86-1.53-1.55-1.59Z"/>
      </g>
      <g>
        <path class="cls-1" d="M80.1,102.34c.09.69.62,1.32,1.22,1.63.97.5,1.5.04,2.24.54.48.32.97,1.21,2.42,1.22,1.37-.13,2.27-1.17,2.28-2.55,0-1.08-.72-1.2-.96-1.36-.58-.41-.07-1.55-.44-2.63-.49-1.46-2.2-2.03-3.51-.92-.43.37-.72.87-1.11,1.27-.53.54-.65.24-1.12.38-.86.27-1.14,1.65-1.04,2.42Z"/>
        <path class="cls-1" d="M84.11,96.85c.79.19,1.88-.69,2.2-1.38.07.02-.28.61-.16,1.34.09.6.59,1.26,1.21,1.37.72.02,1.75-.66,2.09-1.29.77-1.43-.03-3.52-1.65-3.02-.63.19-1.07.73-1.37,1.29.44-1.83-.96-3.36-2.47-2.2-.78.6-1.12,1.73-.87,2.68.12.46.53,1.09,1.01,1.21Z"/>
        <path class="cls-1" d="M90.36,97.31c-.9-.29-2.19.61-2.57,1.39-.77,1.59.43,3.29,2.13,2.52,1.78-.81,1.78-3.47.44-3.91Z"/>
        <path class="cls-1" d="M82.04,94.88c-1.55-.55-2.86,1.89-2.03,3.31.94,1.62,3.14.41,3.14-1.39,0-.65-.46-1.7-1.11-1.93Z"/>
      </g>
      <g>
        <path class="cls-1" d="M97.85,148.13c.26.65.92,1.12,1.59,1.28,1.07.25,1.46-.33,2.3-.03.54.19,1.24.93,2.65.59,1.3-.47,1.91-1.7,1.57-3.03-.26-1.05-.99-.98-1.26-1.08-.67-.25-.45-1.48-1.08-2.44-.84-1.29-2.64-1.43-3.63-.03-.33.46-.48,1.02-.76,1.5-.38.66-.57.39-.99.65-.76.47-.69,1.88-.4,2.61Z"/>
        <path class="cls-1" d="M100.38,141.82c.82,0,1.65-1.14,1.79-1.89.07,0-.12.66.17,1.34.24.56.88,1.08,1.51,1.03.71-.16,1.54-1.07,1.71-1.76.39-1.57-.9-3.4-2.35-2.52-.57.34-.86.97-1,1.59-.03-1.89-1.76-3.02-2.93-1.52-.61.78-.66,1.96-.18,2.81.23.42.78.93,1.28.92Z"/>
        <path class="cls-1" d="M106.55,140.72c-.94-.06-1.97,1.13-2.14,1.99-.36,1.73,1.23,3.09,2.69,1.91,1.52-1.22.87-3.81-.54-3.9Z"/>
        <path class="cls-1" d="M97.89,140.43c-1.64-.15-2.3,2.54-1.14,3.71,1.31,1.33,3.14-.38,2.7-2.12-.16-.63-.86-1.53-1.55-1.59Z"/>
      </g>
      <g>
        <path class="cls-1" d="M79.22,130.68c.09.69.62,1.32,1.22,1.63.97.5,1.5.04,2.24.54.48.32.97,1.21,2.42,1.22,1.37-.13,2.27-1.17,2.28-2.55,0-1.08-.72-1.2-.96-1.36-.58-.41-.07-1.55-.44-2.63-.49-1.46-2.2-2.03-3.51-.92-.43.37-.72.87-1.11,1.27-.53.54-.65.24-1.12.38-.86.27-1.14,1.65-1.04,2.42Z"/>
        <path class="cls-1" d="M83.24,125.2c.79.19,1.88-.69,2.2-1.38.07.02-.28.61-.16,1.34.09.6.59,1.26,1.21,1.37.72.02,1.75-.66,2.09-1.29.77-1.43-.03-3.52-1.65-3.02-.63.19-1.07.73-1.37,1.29.44-1.83-.96-3.36-2.47-2.2-.78.6-1.12,1.73-.87,2.68.12.46.53,1.09,1.01,1.21Z"/>
        <path class="cls-1" d="M89.48,125.65c-.9-.29-2.19.61-2.57,1.39-.77,1.59.43,3.29,2.13,2.52,1.78-.81,1.78-3.47.44-3.91Z"/>
        <path class="cls-1" d="M81.17,123.22c-1.55-.55-2.86,1.89-2.03,3.31.94,1.62,3.14.41,3.14-1.39,0-.65-.46-1.7-1.11-1.93Z"/>
      </g>
      <g>
        <path class="cls-1" d="M112.49,62.46c-.11.69.22,1.44.71,1.91.79.76,1.42.46,2,1.15.37.44.59,1.43,1.98,1.86,1.35.26,2.51-.48,2.9-1.8.31-1.04-.35-1.35-.53-1.58-.44-.56.37-1.5.33-2.65-.06-1.54-1.54-2.57-3.1-1.88-.52.23-.93.63-1.43.9-.66.37-.69.04-1.18.05-.9.02-1.56,1.26-1.68,2.03Z"/>
        <path class="cls-1" d="M117.9,58.33c.7.41,2-.13,2.51-.7.06.04-.44.51-.54,1.24-.08.6.21,1.38.77,1.66.69.23,1.87-.14,2.37-.64,1.14-1.15.97-3.38-.73-3.37-.66,0-1.23.4-1.68.85.94-1.63.03-3.49-1.74-2.81-.92.36-1.56,1.35-1.59,2.32-.01.48.2,1.2.63,1.45Z"/>
        <path class="cls-1" d="M123.76,60.54c-.78-.53-2.27-.04-2.86.61-1.19,1.31-.52,3.28,1.33,3.02,1.93-.27,2.69-2.83,1.53-3.63Z"/>
        <path class="cls-1" d="M116.47,55.86c-1.33-.97-3.28,1-2.88,2.61.44,1.82,2.89,1.28,3.4-.44.18-.62.04-1.76-.52-2.16Z"/>
      </g>
      <path class="cls-1" d="M29.29,145.62c-.88.65-2.13.47-2.79-.42-.23-.32-.36-.68-.38-1.04-.03-.41-.28-.74-.66-.89-.42-.16-.78-.47-1.03-.91-.4-.74-.28-1.7.3-2.31.73-.77,1.85-.81,2.63-.25.32.23.75.2,1.06-.03l3.24-2.39c.33-.25.49-.68.36-1.07-.28-.9.1-1.93,1.04-2.4.75-.37,1.7-.2,2.29.41.37.38.55.85.56,1.32.01.36.24.67.58.79.37.13.7.36.95.7.65.89.47,2.13-.42,2.78-.74.55-1.73.5-2.42-.04-.25-.2-.58-.23-.84-.04l-3.4,2.5c-.34.25-.48.69-.36,1.1.24.78-.03,1.66-.73,2.18Z"/>
      <path class="cls-1" d="M134.61,7.72c-.15-1.09.61-2.1,1.7-2.25.39-.05.76,0,1.1.16.37.17.79.11,1.1-.16.34-.29.79-.47,1.29-.47.84,0,1.63.56,1.89,1.36.33,1.01-.17,2.02-1.03,2.43-.35.17-.54.56-.48.95l.56,3.99c.06.41.36.75.77.83.92.18,1.65,1.01,1.61,2.05-.03.84-.64,1.59-1.45,1.82-.51.14-1.01.08-1.43-.13-.32-.16-.7-.11-.97.13-.29.26-.65.45-1.07.5-1.09.15-2.1-.61-2.25-1.69-.13-.91.38-1.76,1.18-2.11.29-.12.48-.4.44-.72l-.58-4.18c-.06-.42-.38-.75-.8-.84-.8-.17-1.45-.82-1.57-1.68Z"/>
      <g>
        <path class="cls-1" d="M7.38.49C6.86.03,6.05-.09,5.38.07c-1.07.26-1.15.96-2.04,1.07-.57.07-1.53-.27-2.63.67-.95,1-.94,2.38-.04,3.42.71.82,1.33.43,1.62.4.71-.08,1.07,1.12,2.06,1.69,1.33.78,3,.08,3.25-1.61.08-.56-.03-1.13,0-1.69.05-.76.34-.61.59-1.02.47-.77-.23-1.99-.82-2.51Z"/>
        <path class="cls-1" d="M7.97,7.26c-.72.37-.96,1.76-.75,2.49-.06.03-.19-.64-.76-1.12-.46-.39-1.27-.56-1.81-.24-.56.46-.88,1.65-.73,2.34.36,1.58,2.33,2.63,3.24,1.19.35-.56.33-1.25.18-1.87.88,1.67,2.93,1.9,3.31.03.19-.97-.3-2.04-1.11-2.59-.4-.27-1.12-.47-1.56-.24Z"/>
        <path class="cls-1" d="M2.97,11.03c.87-.37,1.25-1.9,1.02-2.74-.46-1.71-2.49-2.2-3.26-.5-.81,1.78.94,3.79,2.25,3.23Z"/>
        <path class="cls-1" d="M10.82,7.38c1.53-.61.91-3.3-.65-3.83-1.77-.6-2.63,1.76-1.45,3.11.43.49,1.46.97,2.1.72Z"/>
      </g>
      <g>
        <path class="cls-1" d="M31.88,7.65c-.39-.57-1.14-.9-1.83-.9-1.1,0-1.35.64-2.24.53-.57-.07-1.41-.64-2.71,0-1.16.74-1.5,2.07-.88,3.3.48.97,1.18.74,1.47.79.71.1.76,1.35,1.58,2.15,1.1,1.08,2.88.82,3.55-.76.22-.52.25-1.1.42-1.63.23-.72.48-.51.83-.85.64-.63.27-1.98-.17-2.63Z"/>
        <path class="cls-1" d="M30.77,14.36c-.79.18-1.36,1.47-1.34,2.23-.07.01-.03-.67-.46-1.27-.35-.49-1.09-.86-1.7-.68-.66.3-1.27,1.38-1.28,2.09-.04,1.62,1.61,3.13,2.84,1.95.48-.46.63-1.13.63-1.77.43,1.84,2.37,2.57,3.19.85.43-.89.22-2.05-.43-2.78-.32-.36-.97-.74-1.45-.62Z"/>
        <path class="cls-1" d="M24.99,16.77c.93-.14,1.68-1.53,1.66-2.4-.03-1.77-1.87-2.75-3.04-1.29-1.22,1.52-.02,3.91,1.38,3.69Z"/>
        <path class="cls-1" d="M33.51,15.18c1.64-.21,1.7-2.98.31-3.87-1.57-1.02-2.98,1.05-2.17,2.65.29.58,1.17,1.31,1.86,1.22Z"/>
      </g>
      <g>
        <path class="cls-1" d="M16.26,27.83c-.52-.46-1.33-.58-2-.42-1.07.26-1.15.96-2.04,1.07-.57.07-1.53-.27-2.63.67-.95,1-.94,2.38-.04,3.42.71.82,1.33.43,1.62.4.71-.08,1.07,1.12,2.06,1.69,1.33.78,3,.08,3.25-1.61.08-.56-.03-1.13,0-1.69.05-.76.34-.61.59-1.02.47-.77-.23-1.99-.82-2.51Z"/>
        <path class="cls-1" d="M16.85,34.6c-.72.37-.96,1.76-.75,2.49-.06.03-.19-.64-.76-1.12-.46-.39-1.27-.56-1.81-.24-.56.46-.88,1.65-.73,2.34.36,1.58,2.33,2.63,3.24,1.19.35-.56.33-1.25.18-1.87.88,1.67,2.93,1.9,3.31.03.19-.97-.3-2.04-1.11-2.59-.4-.27-1.12-.47-1.56-.24Z"/>
        <path class="cls-1" d="M11.85,38.37c.87-.37,1.25-1.9,1.02-2.74-.46-1.71-2.49-2.2-3.26-.5-.81,1.78.94,3.79,2.25,3.23Z"/>
        <path class="cls-1" d="M19.71,34.72c1.53-.61.91-3.3-.65-3.83-1.77-.6-2.63,1.76-1.45,3.11.43.49,1.46.97,2.1.72Z"/>
      </g>
      <g>
        <path class="cls-1" d="M40.76,34.99c-.39-.57-1.14-.9-1.83-.9-1.1,0-1.35.64-2.24.53-.57-.07-1.41-.64-2.71,0-1.16.74-1.5,2.07-.88,3.3.48.97,1.18.74,1.47.79.71.1.76,1.35,1.58,2.15,1.1,1.08,2.88.82,3.55-.76.22-.52.25-1.1.42-1.63.23-.72.48-.51.83-.85.64-.63.27-1.98-.17-2.63Z"/>
        <path class="cls-1" d="M39.66,41.7c-.79.18-1.36,1.47-1.34,2.23-.07.01-.03-.67-.46-1.27-.35-.49-1.09-.86-1.7-.68-.66.3-1.27,1.38-1.28,2.09-.04,1.62,1.61,3.13,2.84,1.95.48-.46.63-1.13.63-1.77.43,1.84,2.37,2.57,3.19.85.43-.89.22-2.05-.43-2.78-.32-.36-.97-.74-1.45-.62Z"/>
        <path class="cls-1" d="M33.88,44.11c.93-.14,1.68-1.53,1.66-2.4-.03-1.77-1.87-2.75-3.04-1.29-1.22,1.52-.02,3.91,1.38,3.69Z"/>
        <path class="cls-1" d="M42.4,42.52c1.64-.21,1.7-2.98.31-3.87-1.57-1.02-2.98,1.05-2.17,2.65.29.58,1.17,1.31,1.86,1.22Z"/>
      </g>
      <g>
        <path class="cls-1" d="M28.01,50.74c-.41-.56-1.17-.86-1.86-.85-1.1.02-1.33.68-2.23.6-.57-.06-1.43-.6-2.71.08-1.14.77-1.44,2.11-.78,3.33.51.95,1.2.71,1.49.74.71.08.8,1.33,1.64,2.1,1.13,1.05,2.9.74,3.52-.86.2-.53.22-1.11.37-1.65.21-.73.46-.52.8-.87.62-.65.21-1.99-.25-2.62Z"/>
        <path class="cls-1" d="M27.1,57.47c-.79.21-1.32,1.51-1.27,2.27-.07.02-.05-.67-.5-1.26-.37-.48-1.12-.83-1.72-.63-.65.32-1.22,1.42-1.22,2.13,0,1.62,1.7,3.08,2.9,1.87.46-.47.59-1.15.58-1.79.49,1.82,2.45,2.5,3.22.76.4-.9.16-2.06-.51-2.77-.33-.35-.99-.71-1.47-.58Z"/>
        <path class="cls-1" d="M21.4,60.06c.93-.17,1.63-1.58,1.59-2.45-.08-1.77-1.95-2.69-3.08-1.2-1.18,1.56.09,3.91,1.48,3.65Z"/>
        <path class="cls-1" d="M29.86,58.22c1.63-.26,1.61-3.02.2-3.88-1.6-.97-2.95,1.14-2.09,2.72.31.57,1.21,1.27,1.89,1.16Z"/>
      </g>
      <g>
        <path class="cls-1" d="M50.35,63.09c-.26-.65-.92-1.13-1.59-1.28-1.07-.25-1.46.33-2.3.03-.54-.2-1.24-.93-2.65-.59-1.3.47-1.92,1.69-1.58,3.03.26,1.05.99.98,1.26,1.09.67.25.45,1.48,1.07,2.45.83,1.29,2.63,1.43,3.63.04.33-.46.48-1.02.77-1.5.38-.65.58-.39.99-.65.77-.47.7-1.88.41-2.6Z"/>
        <path class="cls-1" d="M47.8,69.39c-.82,0-1.65,1.13-1.8,1.88-.07,0,.12-.66-.17-1.34-.24-.56-.88-1.08-1.51-1.03-.71.15-1.54,1.07-1.71,1.76-.4,1.57.89,3.4,2.34,2.53.57-.34.86-.97,1.01-1.59.02,1.89,1.75,3.02,2.93,1.53.61-.77.66-1.96.19-2.81-.23-.42-.78-.93-1.28-.93Z"/>
        <path class="cls-1" d="M41.63,70.48c.94.06,1.97-1.12,2.15-1.98.36-1.73-1.22-3.09-2.68-1.92-1.53,1.22-.88,3.81.53,3.9Z"/>
        <path class="cls-1" d="M50.29,70.79c1.64.15,2.31-2.53,1.15-3.71-1.31-1.34-3.14.38-2.7,2.11.16.63.86,1.53,1.55,1.6Z"/>
      </g>
      <g>
        <path class="cls-1" d="M32.18,78.91c-.41-.56-1.17-.86-1.86-.85-1.1.02-1.33.68-2.23.6-.57-.06-1.43-.6-2.71.08-1.14.77-1.44,2.11-.78,3.33.51.95,1.2.71,1.49.74.71.08.8,1.33,1.64,2.1,1.13,1.05,2.9.74,3.52-.86.2-.53.22-1.11.37-1.65.21-.73.46-.52.8-.87.62-.65.21-1.99-.25-2.62Z"/>
        <path class="cls-1" d="M31.27,85.65c-.79.21-1.32,1.51-1.27,2.27-.07.02-.05-.67-.5-1.26-.37-.48-1.12-.83-1.72-.63-.65.32-1.22,1.42-1.22,2.13,0,1.62,1.7,3.08,2.9,1.87.46-.47.59-1.15.58-1.79.49,1.82,2.45,2.5,3.22.76.4-.9.16-2.06-.51-2.77-.33-.35-.99-.71-1.47-.58Z"/>
        <path class="cls-1" d="M25.57,88.23c.93-.17,1.63-1.58,1.59-2.45-.08-1.77-1.95-2.69-3.08-1.2-1.18,1.56.09,3.91,1.48,3.65Z"/>
        <path class="cls-1" d="M34.03,86.39c1.63-.26,1.61-3.02.2-3.88-1.6-.97-2.95,1.14-2.09,2.72.31.57,1.21,1.27,1.89,1.16Z"/>
      </g>
      <g>
        <path class="cls-1" d="M54.52,91.26c-.26-.65-.92-1.13-1.59-1.28-1.07-.25-1.46.33-2.3.03-.54-.2-1.24-.93-2.65-.59-1.3.47-1.92,1.69-1.58,3.03.26,1.05.99.98,1.26,1.09.67.25.45,1.48,1.07,2.45.83,1.29,2.63,1.43,3.63.04.33-.46.48-1.02.77-1.5.38-.65.58-.39.99-.65.77-.47.7-1.88.41-2.6Z"/>
        <path class="cls-1" d="M51.97,97.56c-.82,0-1.65,1.13-1.8,1.88-.07,0,.12-.66-.17-1.34-.24-.56-.88-1.08-1.51-1.03-.71.15-1.54,1.07-1.71,1.76-.4,1.57.89,3.4,2.34,2.53.57-.34.86-.97,1.01-1.59.02,1.89,1.75,3.02,2.93,1.53.61-.77.66-1.96.19-2.81-.23-.42-.78-.93-1.28-.93Z"/>
        <path class="cls-1" d="M45.8,98.65c.94.06,1.97-1.12,2.15-1.98.36-1.73-1.22-3.09-2.68-1.92-1.53,1.22-.88,3.81.53,3.9Z"/>
        <path class="cls-1" d="M54.46,98.97c1.64.15,2.31-2.53,1.15-3.71-1.31-1.34-3.14.38-2.7,2.11.16.63.86,1.53,1.55,1.6Z"/>
      </g>
      <g>
        <path class="cls-1" d="M30.22,105.75c-.41-.56-1.17-.86-1.86-.85-1.1.02-1.33.68-2.23.6-.57-.06-1.43-.6-2.71.08-1.14.77-1.44,2.11-.78,3.33.51.95,1.2.71,1.49.74.71.08.8,1.33,1.64,2.1,1.13,1.05,2.9.74,3.52-.86.2-.53.22-1.11.37-1.65.21-.73.46-.52.8-.87.62-.65.21-1.99-.25-2.62Z"/>
        <path class="cls-1" d="M29.31,112.49c-.79.21-1.32,1.51-1.27,2.27-.07.02-.05-.67-.5-1.26-.37-.48-1.12-.83-1.72-.63-.65.32-1.22,1.42-1.22,2.13,0,1.62,1.7,3.08,2.9,1.87.46-.47.59-1.15.58-1.79.49,1.82,2.45,2.5,3.22.76.4-.9.16-2.06-.51-2.77-.33-.35-.99-.71-1.47-.58Z"/>
        <path class="cls-1" d="M23.61,115.07c.93-.17,1.63-1.58,1.59-2.45-.08-1.77-1.95-2.69-3.08-1.2-1.18,1.56.09,3.91,1.48,3.65Z"/>
        <path class="cls-1" d="M32.07,113.23c1.63-.26,1.61-3.02.2-3.88-1.6-.97-2.95,1.14-2.09,2.72.31.57,1.21,1.27,1.89,1.16Z"/>
      </g>
      <g>
        <path class="cls-1" d="M52.56,118.11c-.26-.65-.92-1.13-1.59-1.28-1.07-.25-1.46.33-2.3.03-.54-.2-1.24-.93-2.65-.59-1.3.47-1.92,1.69-1.58,3.03.26,1.05.99.98,1.26,1.09.67.25.45,1.48,1.07,2.45.83,1.29,2.63,1.43,3.63.04.33-.46.48-1.02.77-1.5.38-.65.58-.39.99-.65.77-.47.7-1.88.41-2.6Z"/>
        <path class="cls-1" d="M50.01,124.41c-.82,0-1.65,1.13-1.8,1.88-.07,0,.12-.66-.17-1.34-.24-.56-.88-1.08-1.51-1.03-.71.15-1.54,1.07-1.71,1.76-.4,1.57.89,3.4,2.34,2.53.57-.34.86-.97,1.01-1.59.02,1.89,1.75,3.02,2.93,1.53.61-.77.66-1.96.19-2.81-.23-.42-.78-.93-1.28-.93Z"/>
        <path class="cls-1" d="M43.84,125.5c.94.06,1.97-1.12,2.15-1.98.36-1.73-1.22-3.09-2.68-1.92-1.53,1.22-.88,3.81.53,3.9Z"/>
        <path class="cls-1" d="M52.5,125.81c1.64.15,2.31-2.53,1.15-3.71-1.31-1.34-3.14.38-2.7,2.11.16.63.86,1.53,1.55,1.6Z"/>
      </g>
    </g>
  </g>
</svg>