<?xml version="1.0" encoding="UTF-8"?>
<svg id="Layer_2" data-name="Layer 2" xmlns="http://www.w3.org/2000/svg" xmlns:xlink="http://www.w3.org/1999/xlink" viewBox="0 0 57.31 29.54">
  <defs>
    <style>
      .cls-1 {
        fill: url(#linear-gradient);
      }

      .cls-1, .cls-2 {
        stroke-width: 0px;
      }

      .cls-2 {
        fill: #f2f2f2;
      }
    </style>
    <linearGradient id="linear-gradient" x1="28.48" y1="7.51" x2="28.47" y2="16.31" gradientTransform="translate(-.9 .41)" gradientUnits="userSpaceOnUse">
      <stop offset=".08" stop-color="#969696"/>
      <stop offset=".13" stop-color="#a6a6a6"/>
      <stop offset=".24" stop-color="#c1c1c1"/>
      <stop offset=".35" stop-color="#d7d7d7"/>
      <stop offset=".48" stop-color="#e6e6e6"/>
      <stop offset=".63" stop-color="#efefef"/>
      <stop offset=".86" stop-color="#f2f2f2"/>
    </linearGradient>
  </defs>
  <g id="Layer_1-2" data-name="Layer 1">
    <g>
      <path class="cls-2" d="M.77,9.51h53.89c1.26,0,2.28,1.02,2.28,2.28v3.44c0,.1-.08.18-.18.18H-1.33c-.1,0-.18-.08-.18-.18v-3.44c0-1.26,1.02-2.28,2.28-2.28Z" transform="translate(-2.62 10.64) rotate(-20.77)"/>
      <path class="cls-1" d="M1.19,10.21h52.77c.99,0,1.8.8,1.8,1.8v1.85c0,.08-.06.14-.14.14H-.46c-.08,0-.14-.06-.14-.14v-1.85c0-.99.8-1.8,1.8-1.8Z" transform="translate(-2.5 10.57) rotate(-20.77)"/>
      <g>
        <path class="cls-2" d="M1.13,23.22c.29.19.53.4.77.61l.29.79.6,1.58c.2.52.71,1.86.9,2.37-.04.32-.08.63-.17.97-.29-.19-.52-.4-.77-.61-.19-.5-.7-1.85-.9-2.37,0,0-.6-1.58-.6-1.58l-.3-.79c.04-.32.08-.63.17-.97h0Z"/>
        <path class="cls-2" d="M2.8,22.59c.29.19.53.4.77.61l.29.79.6,1.58c.2.52.71,1.86.9,2.37-.04.32-.08.63-.17.97-.29-.19-.52-.4-.77-.61-.19-.5-.7-1.85-.9-2.37,0,0-.6-1.58-.6-1.58l-.3-.79c.04-.32.08-.63.17-.97h0Z"/>
        <path class="cls-2" d="M4.48,21.95c.29.19.53.4.77.61l.29.79.6,1.58c.2.52.71,1.86.9,2.37-.04.32-.08.63-.17.97-.29-.19-.52-.4-.77-.61-.19-.5-.7-1.85-.9-2.37,0,0-.6-1.58-.6-1.58l-.3-.79c.04-.32.08-.63.17-.97h0Z"/>
        <path class="cls-2" d="M6.16,21.32c.29.19.53.4.77.61l.29.79.6,1.58c.2.52.71,1.86.9,2.37-.04.32-.08.63-.17.97-.29-.19-.52-.4-.77-.61-.19-.5-.7-1.85-.9-2.37,0,0-.6-1.58-.6-1.58l-.3-.79c.04-.32.08-.63.17-.97h0Z"/>
        <path class="cls-2" d="M7.83,20.68c.29.19.53.4.77.61l.29.79.6,1.58c.2.52.71,1.86.9,2.37-.04.32-.08.63-.17.97-.29-.19-.52-.4-.77-.61-.19-.5-.7-1.85-.9-2.37,0,0-.6-1.58-.6-1.58l-.3-.79c.04-.32.08-.63.17-.97h0Z"/>
        <path class="cls-2" d="M9.51,20.05c.29.19.53.4.77.61l.29.79.6,1.58c.2.52.71,1.86.9,2.37-.04.32-.08.63-.17.97-.29-.19-.52-.4-.77-.61-.19-.5-.7-1.85-.9-2.37,0,0-.6-1.58-.6-1.58l-.3-.79c.04-.32.08-.63.17-.97h0Z"/>
        <path class="cls-2" d="M11.18,19.41c.29.19.53.4.77.61l.29.79.6,1.58c.2.52.71,1.86.9,2.37-.04.32-.08.63-.17.97-.29-.19-.52-.4-.77-.61-.19-.5-.7-1.85-.9-2.37,0,0-.6-1.58-.6-1.58l-.3-.79c.04-.32.08-.63.17-.97h0Z"/>
        <path class="cls-2" d="M12.86,18.78c.29.19.53.4.77.61l.29.79.6,1.58c.2.52.71,1.86.9,2.37-.04.32-.08.63-.17.97-.29-.19-.52-.4-.77-.61-.19-.5-.7-1.85-.9-2.37,0,0-.6-1.58-.6-1.58l-.3-.79c.04-.32.08-.63.17-.97h0Z"/>
        <path class="cls-2" d="M14.53,18.14c.29.19.53.4.77.61l.29.79.6,1.58c.2.52.71,1.86.9,2.37-.04.32-.08.63-.17.97-.29-.19-.52-.4-.77-.61-.19-.5-.7-1.85-.9-2.37,0,0-.6-1.58-.6-1.58l-.3-.79c.04-.32.08-.63.17-.97h0Z"/>
        <path class="cls-2" d="M16.21,17.5c.29.19.53.4.77.61l.29.79.6,1.58c.2.52.71,1.86.9,2.37-.04.32-.08.63-.17.97-.29-.19-.52-.4-.77-.61-.19-.5-.7-1.85-.9-2.37,0,0-.6-1.58-.6-1.58l-.3-.79c.04-.32.08-.63.17-.97h0Z"/>
        <path class="cls-2" d="M17.88,16.87c.29.19.53.4.77.61l.29.79.6,1.58c.2.52.71,1.86.9,2.37-.04.32-.08.63-.17.97-.29-.19-.52-.4-.77-.61-.19-.5-.7-1.85-.9-2.37,0,0-.6-1.58-.6-1.58l-.3-.79c.04-.32.08-.63.17-.97h0Z"/>
        <path class="cls-2" d="M19.56,16.23c.29.19.53.4.77.61l.29.79.6,1.58c.2.52.71,1.86.9,2.37-.04.32-.08.63-.17.97-.29-.19-.52-.4-.77-.61-.19-.5-.7-1.85-.9-2.37,0,0-.6-1.58-.6-1.58l-.3-.79c.04-.32.08-.63.17-.97h0Z"/>
        <path class="cls-2" d="M21.23,15.6c.29.19.53.4.77.61l.29.79.6,1.58c.2.52.71,1.86.9,2.37-.04.32-.08.63-.17.97-.29-.19-.52-.4-.77-.61-.19-.5-.7-1.85-.9-2.37,0,0-.6-1.58-.6-1.58l-.3-.79c.04-.32.08-.63.17-.97h0Z"/>
        <path class="cls-2" d="M22.91,14.96c.29.19.53.4.77.61l.29.79.6,1.58c.2.52.71,1.86.9,2.37-.04.32-.08.63-.17.97-.29-.19-.52-.4-.77-.61-.19-.5-.7-1.85-.9-2.37,0,0-.6-1.58-.6-1.58l-.3-.79c.04-.32.08-.63.17-.97h0Z"/>
        <path class="cls-2" d="M24.59,14.33c.29.19.53.4.77.61l.29.79.6,1.58c.2.52.71,1.86.9,2.37-.04.32-.08.63-.17.97-.29-.19-.52-.4-.77-.61-.19-.5-.7-1.85-.9-2.37,0,0-.6-1.58-.6-1.58l-.3-.79c.04-.32.08-.63.17-.97h0Z"/>
        <path class="cls-2" d="M26.26,13.69c.29.19.53.4.77.61l.29.79.6,1.58c.2.52.71,1.86.9,2.37-.04.32-.08.63-.17.97-.29-.19-.52-.4-.77-.61-.19-.5-.7-1.85-.9-2.37,0,0-.6-1.58-.6-1.58l-.3-.79c.04-.32.08-.63.17-.97h0Z"/>
        <path class="cls-2" d="M27.94,13.06c.29.19.53.4.77.61l.29.79.6,1.58c.2.52.71,1.86.9,2.37-.04.32-.08.63-.17.97-.29-.19-.52-.4-.77-.61-.19-.5-.7-1.85-.9-2.37,0,0-.6-1.58-.6-1.58l-.3-.79c.04-.32.08-.63.17-.97h0Z"/>
        <path class="cls-2" d="M29.61,12.42c.29.19.53.4.77.61l.29.79.6,1.58c.2.52.71,1.86.9,2.37-.04.32-.08.63-.17.97-.29-.19-.52-.4-.77-.61-.19-.5-.7-1.85-.9-2.37,0,0-.6-1.58-.6-1.58l-.3-.79c.04-.32.08-.63.17-.97h0Z"/>
        <path class="cls-2" d="M31.29,11.78c.29.19.53.4.77.61l.29.79.6,1.58c.2.52.71,1.86.9,2.37-.04.32-.08.63-.17.97-.29-.19-.52-.4-.77-.61-.19-.5-.7-1.85-.9-2.37,0,0-.6-1.58-.6-1.58l-.3-.79c.04-.32.08-.63.17-.97h0Z"/>
        <path class="cls-2" d="M32.96,11.15c.29.19.53.4.77.61l.29.79.6,1.58c.2.52.71,1.86.9,2.37-.04.32-.08.63-.17.97-.29-.19-.52-.4-.77-.61-.19-.5-.7-1.85-.9-2.37,0,0-.6-1.58-.6-1.58l-.3-.79c.04-.32.08-.63.17-.97h0Z"/>
        <path class="cls-2" d="M34.64,10.51c.29.19.53.4.77.61l.29.79.6,1.58c.2.52.71,1.86.9,2.37-.04.32-.08.63-.17.97-.29-.19-.52-.4-.77-.61-.19-.5-.7-1.85-.9-2.37,0,0-.6-1.58-.6-1.58l-.3-.79c.04-.32.08-.63.17-.97h0Z"/>
        <path class="cls-2" d="M36.31,9.88c.29.19.53.4.77.61l.29.79.6,1.58c.2.52.71,1.86.9,2.37-.04.32-.08.63-.17.97-.29-.19-.52-.4-.77-.61-.19-.5-.7-1.85-.9-2.37,0,0-.6-1.58-.6-1.58l-.3-.79c.04-.32.08-.63.17-.97h0Z"/>
        <path class="cls-2" d="M37.99,9.24c.29.19.53.4.77.61l.29.79.6,1.58c.2.52.71,1.86.9,2.37-.04.32-.08.63-.17.97-.29-.19-.52-.4-.77-.61-.19-.5-.7-1.85-.9-2.37,0,0-.6-1.58-.6-1.58l-.3-.79c.04-.32.08-.63.17-.97h0Z"/>
        <path class="cls-2" d="M39.66,8.61c.29.19.53.4.77.61l.29.79.6,1.58c.2.52.71,1.86.9,2.37-.04.32-.08.63-.17.97-.29-.19-.52-.4-.77-.61-.19-.5-.7-1.85-.9-2.37,0,0-.6-1.58-.6-1.58l-.3-.79c.04-.32.08-.63.17-.97h0Z"/>
        <path class="cls-2" d="M41.34,7.97c.29.19.53.4.77.61l.29.79.6,1.58c.2.52.71,1.86.9,2.37-.04.32-.08.63-.17.97-.29-.19-.52-.4-.77-.61-.19-.5-.7-1.85-.9-2.37,0,0-.6-1.58-.6-1.58l-.3-.79c.04-.32.08-.63.17-.97h0Z"/>
        <path class="cls-2" d="M43.02,7.34c.29.19.53.4.77.61l.29.79.6,1.58c.2.52.71,1.86.9,2.37-.04.32-.08.63-.17.97-.29-.19-.52-.4-.77-.61-.19-.5-.7-1.85-.9-2.37,0,0-.6-1.58-.6-1.58l-.3-.79c.04-.32.08-.63.17-.97h0Z"/>
        <path class="cls-2" d="M44.69,6.7c.29.19.53.4.77.61l.29.79.6,1.58c.2.52.71,1.86.9,2.37-.04.32-.08.63-.17.97-.29-.19-.52-.4-.77-.61-.19-.5-.7-1.85-.9-2.37,0,0-.6-1.58-.6-1.58l-.3-.79c.04-.32.08-.63.17-.97h0Z"/>
        <path class="cls-2" d="M46.37,6.06c.29.19.53.4.77.61l.29.79.6,1.58c.2.52.71,1.86.9,2.37-.04.32-.08.63-.17.97-.29-.19-.52-.4-.77-.61-.19-.5-.7-1.85-.9-2.37,0,0-.6-1.58-.6-1.58l-.3-.79c.04-.32.08-.63.17-.97h0Z"/>
        <path class="cls-2" d="M48.04,5.43c.29.19.53.4.77.61l.29.79.6,1.58c.2.52.71,1.86.9,2.37-.04.32-.08.63-.17.97-.29-.19-.52-.4-.77-.61-.19-.5-.7-1.85-.9-2.37,0,0-.6-1.58-.6-1.58l-.3-.79c.04-.32.08-.63.17-.97h0Z"/>
        <path class="cls-2" d="M49.72,4.79c.29.19.53.4.77.61l.29.79.6,1.58c.2.52.71,1.86.9,2.37-.04.32-.08.63-.17.97-.29-.19-.52-.4-.77-.61-.19-.5-.7-1.85-.9-2.37,0,0-.6-1.58-.6-1.58l-.3-.79c.04-.32.08-.63.17-.97h0Z"/>
        <path class="cls-2" d="M51.39,4.16c.29.19.53.4.77.61l.29.79.6,1.58c.2.52.71,1.86.9,2.37-.04.32-.08.63-.17.97-.29-.19-.52-.4-.77-.61-.19-.5-.7-1.85-.9-2.37,0,0-.6-1.58-.6-1.58l-.3-.79c.04-.32.08-.63.17-.97h0Z"/>
        <path class="cls-2" d="M53.07,3.52c.29.19.53.4.77.61l.29.79.6,1.58c.2.52.71,1.86.9,2.37-.04.32-.08.63-.17.97-.29-.19-.52-.4-.77-.61-.19-.5-.7-1.85-.9-2.37,0,0-.6-1.58-.6-1.58l-.3-.79c.04-.32.08-.63.17-.97h0Z"/>
        <path class="cls-2" d="M54.74,2.89c.29.19.53.4.77.61l.29.79.6,1.58c.2.52.71,1.86.9,2.37-.04.32-.08.63-.17.97-.29-.19-.52-.4-.77-.61-.19-.5-.7-1.85-.9-2.37,0,0-.6-1.58-.6-1.58l-.3-.79c.04-.32.08-.63.17-.97h0Z"/>
      </g>
    </g>
  </g>
</svg>