<?xml version="1.0" encoding="UTF-8"?>
<svg id="Layer_2" data-name="Layer 2" xmlns="http://www.w3.org/2000/svg" xmlns:xlink="http://www.w3.org/1999/xlink" viewBox="0 0 110.53 125.7">
  <defs>
    <style>
      .cls-1 {
        stroke: url(#linear-gradient-4);
      }

      .cls-1, .cls-2, .cls-3, .cls-4, .cls-5, .cls-6, .cls-7, .cls-8, .cls-9 {
        fill: none;
        stroke-linecap: round;
        stroke-miterlimit: 10;
        stroke-width: 2px;
      }

      .cls-2 {
        stroke: url(#linear-gradient-2);
      }

      .cls-3 {
        stroke: url(#linear-gradient-3);
      }

      .cls-4 {
        stroke: url(#linear-gradient-7);
      }

      .cls-5 {
        stroke: url(#linear-gradient-9);
      }

      .cls-6 {
        stroke: url(#linear-gradient-8);
      }

      .cls-10 {
        opacity: .37;
      }

      .cls-10, .cls-11, .cls-12 {
        stroke-width: 0px;
      }

      .cls-10, .cls-12 {
        fill: #f2f2f2;
      }

      .cls-7 {
        stroke: url(#linear-gradient);
      }

      .cls-8 {
        stroke: url(#linear-gradient-5);
      }

      .cls-11 {
        fill: #ffa54b;
        filter: url(#outer-glow-1);
      }

      .cls-9 {
        stroke: url(#linear-gradient-6);
      }
    </style>
    <filter id="outer-glow-1" filterUnits="userSpaceOnUse">
      <feOffset dx="0" dy="0"/>
      <feGaussianBlur result="blur" stdDeviation="7"/>
      <feFlood flood-color="#ffa54b" flood-opacity=".7"/>
      <feComposite in2="blur" operator="in"/>
      <feComposite in="SourceGraphic"/>
    </filter>
    <linearGradient id="linear-gradient" x1="77.04" y1="20.92" x2="91.23" y2="20.92" gradientTransform="translate(70.46 131.93) rotate(-146.21)" gradientUnits="userSpaceOnUse">
      <stop offset="0" stop-color="#ffa54b"/>
      <stop offset=".06" stop-color="#ffb469"/>
      <stop offset=".16" stop-color="#ffc891"/>
      <stop offset=".26" stop-color="#ffd9b3"/>
      <stop offset=".37" stop-color="#ffe6ce"/>
      <stop offset=".49" stop-color="#fff1e4"/>
      <stop offset=".62" stop-color="#fff9f3"/>
      <stop offset=".77" stop-color="#fffdfc"/>
      <stop offset="1" stop-color="#fff"/>
    </linearGradient>
    <linearGradient id="linear-gradient-2" x2="91.23" gradientTransform="translate(33.64 130.37) rotate(-118.94)" xlink:href="#linear-gradient"/>
    <linearGradient id="linear-gradient-3" y1="20.92" x2="91.23" y2="20.92" gradientTransform="translate(1.63 112.11) rotate(-91.66)" xlink:href="#linear-gradient"/>
    <linearGradient id="linear-gradient-4" x1="77.04" gradientTransform="translate(-18.46 81.21) rotate(-64.39)" xlink:href="#linear-gradient"/>
    <linearGradient id="linear-gradient-5" x1="77.04" y1="20.92" x2="91.23" y2="20.92" gradientTransform="translate(-22.15 44.55) rotate(-37.12)" xlink:href="#linear-gradient"/>
    <linearGradient id="linear-gradient-6" x2="91.23" gradientTransform="translate(-8.64 10.26) rotate(-9.85)" xlink:href="#linear-gradient"/>
    <linearGradient id="linear-gradient-7" x1="77.04" gradientTransform="translate(19.09 -14.02) rotate(17.43)" xlink:href="#linear-gradient"/>
    <linearGradient id="linear-gradient-8" x2="91.23" gradientTransform="translate(54.86 -22.89) rotate(44.7)" xlink:href="#linear-gradient"/>
    <linearGradient id="linear-gradient-9" x1="77.04" x2="91.23" gradientTransform="translate(90.71 -14.39) rotate(71.97)" xlink:href="#linear-gradient"/>
  </defs>
  <g id="Layer_1-2" data-name="Layer 1">
    <g>
      <g>
        <path class="cls-11" d="M83.57,55.55c.06,3.89-.67,7.6-2.04,10.97-.05.16-.12.32-.19.48l-13.14,32.31c-1.1,2.69-3.71,4.45-6.62,4.45h-11.92c-2.86,0-5.45-1.71-6.57-4.34l-13.05-30.59-1.51-3.55c-1.02-2.91-1.57-6.04-1.57-9.3,0-16.27,13.72-29.34,30.22-28.25,14.57.96,26.17,13.22,26.39,27.82Z"/>
        <path class="cls-12" d="M47.97,103.67h14.59v8.3c0,1.46-1.18,2.64-2.64,2.64h-9.31c-1.46,0-2.64-1.18-2.64-2.64v-8.3h0Z"/>
        <g>
          <line class="cls-7" x1="3.08" y1="70.39" x2="21.26" y2="65.12"/>
          <line class="cls-2" x1="1.95" y1="44.79" x2="20.53" y2="48.44"/>
          <line class="cls-3" x1="12.67" y1="21.53" x2="27.52" y2="33.28"/>
          <line class="cls-1" x1="32.87" y1="5.76" x2="40.67" y2="23.01"/>
          <line class="cls-8" x1="58.04" y1="1" x2="57.07" y2="19.91"/>
          <line class="cls-9" x1="82.6" y1="8.3" x2="73.07" y2="24.67"/>
          <line class="cls-4" x1="101.08" y1="26.05" x2="85.11" y2="36.23"/>
          <line class="cls-6" x1="109.37" y1="50.29" x2="90.52" y2="52.02"/>
          <line class="cls-5" x1="105.64" y1="75.64" x2="88.08" y2="68.54"/>
        </g>
      </g>
      <path class="cls-10" d="M36.73,52.94c0,4.98-.98,14.34,1.97,17.9.84,1.01-.53,2.35-1.52,1.5-4.98-4.23-5.16-15.58-4.37-22.78,1.09-9.97,9.52-17.8,19.54-18.22,2.87-.12,5.62.34,8.13,1.3-1.04-.17-2.1-.25-3.18-.25-11.36,0-20.56,9.2-20.56,20.55Z"/>
    </g>
  </g>
</svg>