<?xml version="1.0" encoding="UTF-8"?>
<svg id="Layer_2" data-name="Layer 2" xmlns="http://www.w3.org/2000/svg" viewBox="0 0 136.32 151.53">
  <defs>
    <style>
      .cls-1 {
        fill: #325858;
        stroke-width: 0px;
      }
    </style>
  </defs>
  <g id="Layer_1-2" data-name="Layer 1">
    <g>
      <g>
        <path class="cls-1" d="M90.78,47.84c-.11.69.22,1.44.71,1.91.79.76,1.42.46,2,1.15.37.44.59,1.43,1.98,1.86,1.35.26,2.51-.48,2.9-1.8.31-1.04-.35-1.35-.53-1.58-.44-.56.37-1.5.33-2.65-.06-1.54-1.54-2.57-3.1-1.88-.52.23-.93.63-1.43.9-.66.37-.69.04-1.18.05-.9.02-1.56,1.26-1.68,2.03Z"/>
        <path class="cls-1" d="M96.18,43.72c.7.41,2-.13,2.51-.7.06.04-.44.51-.54,1.24-.08.6.21,1.38.77,1.66.69.23,1.87-.14,2.37-.64,1.14-1.15.97-3.38-.73-3.37-.66,0-1.23.4-1.68.85.94-1.63.03-3.49-1.74-2.81-.92.36-1.56,1.35-1.59,2.32-.01.48.2,1.2.63,1.45Z"/>
        <path class="cls-1" d="M102.04,45.92c-.78-.53-2.27-.04-2.86.61-1.19,1.31-.52,3.28,1.33,3.02,1.93-.27,2.69-2.83,1.53-3.63Z"/>
        <path class="cls-1" d="M94.75,41.24c-1.33-.97-3.28,1-2.88,2.61.44,1.82,2.89,1.28,3.4-.44.18-.62.04-1.76-.52-2.16Z"/>
      </g>
      <g>
        <path class="cls-1" d="M114.15,43.01c-.11.69.22,1.44.71,1.91.79.76,1.42.46,2,1.15.37.44.59,1.43,1.98,1.86,1.35.26,2.51-.48,2.9-1.8.31-1.04-.35-1.35-.53-1.58-.44-.56.37-1.5.33-2.65-.06-1.54-1.54-2.57-3.1-1.88-.52.23-.93.63-1.43.9-.66.37-.69.04-1.18.05-.9.02-1.56,1.26-1.68,2.03Z"/>
        <path class="cls-1" d="M119.55,38.88c.7.41,2-.13,2.51-.7.06.04-.44.51-.54,1.24-.08.6.21,1.38.77,1.66.69.23,1.87-.14,2.37-.64,1.14-1.15.97-3.38-.73-3.37-.66,0-1.23.4-1.68.85.94-1.63.03-3.49-1.74-2.81-.92.36-1.56,1.35-1.59,2.32-.01.48.2,1.2.63,1.45Z"/>
        <path class="cls-1" d="M125.42,41.09c-.78-.53-2.27-.04-2.86.61-1.19,1.31-.52,3.28,1.33,3.02,1.93-.27,2.69-2.83,1.53-3.63Z"/>
        <path class="cls-1" d="M118.12,36.41c-1.33-.97-3.28,1-2.88,2.61.44,1.82,2.89,1.28,3.4-.44.18-.62.04-1.76-.52-2.16Z"/>
      </g>
      <g>
        <path class="cls-1" d="M108.81,23.84c-.11.69.22,1.44.71,1.91.79.76,1.42.46,2,1.15.37.44.59,1.43,1.98,1.86,1.35.26,2.51-.48,2.9-1.8.31-1.04-.35-1.35-.53-1.58-.44-.56.37-1.5.33-2.65-.06-1.54-1.54-2.57-3.1-1.88-.52.23-.93.63-1.43.9-.66.37-.69.04-1.18.05-.9.02-1.56,1.26-1.68,2.03Z"/>
        <path class="cls-1" d="M114.21,19.71c.7.41,2-.13,2.51-.7.06.04-.44.51-.54,1.24-.08.6.21,1.38.77,1.66.69.23,1.87-.14,2.37-.64,1.14-1.15.97-3.38-.73-3.37-.66,0-1.23.4-1.68.85.94-1.63.03-3.49-1.74-2.81-.92.36-1.56,1.35-1.59,2.32-.01.48.2,1.2.63,1.45Z"/>
        <path class="cls-1" d="M120.08,21.92c-.78-.53-2.27-.04-2.86.61-1.19,1.31-.52,3.28,1.33,3.02,1.93-.27,2.69-2.83,1.53-3.63Z"/>
        <path class="cls-1" d="M112.78,17.24c-1.33-.97-3.28,1-2.88,2.61.44,1.82,2.89,1.28,3.4-.44.18-.62.04-1.76-.52-2.16Z"/>
      </g>
      <g>
        <path class="cls-1" d="M95.84,94.28c.17.67.78,1.23,1.42,1.46,1.03.38,1.49-.15,2.29.25.51.26,1.11,1.08,2.56.91,1.35-.3,2.11-1.44,1.94-2.81-.13-1.07-.86-1.1-1.12-1.23-.63-.33-.27-1.53-.76-2.56-.67-1.39-2.44-1.74-3.59-.48-.38.42-.6.95-.94,1.4-.46.6-.62.32-1.06.52-.82.38-.92,1.78-.72,2.54Z"/>
        <path class="cls-1" d="M99.13,88.33c.81.09,1.78-.92,2.01-1.65.07,0-.2.64,0,1.35.17.58.74,1.18,1.37,1.21.72-.07,1.66-.88,1.91-1.54.58-1.51-.47-3.48-2.02-2.79-.6.27-.97.86-1.19,1.45.21-1.88-1.37-3.21-2.72-1.87-.7.69-.89,1.86-.53,2.76.18.44.66,1.02,1.16,1.08Z"/>
        <path class="cls-1" d="M105.39,88c-.93-.18-2.09.88-2.37,1.7-.57,1.68.83,3.22,2.43,2.23,1.66-1.02,1.34-3.67-.05-3.94Z"/>
        <path class="cls-1" d="M96.83,86.64c-1.61-.35-2.6,2.23-1.6,3.54,1.14,1.49,3.16,0,2.94-1.77-.08-.64-.67-1.62-1.34-1.77Z"/>
      </g>
      <g>
        <path class="cls-1" d="M79.52,74.64c0,.69.45,1.38,1.01,1.77.9.62,1.48.22,2.15.81.43.38.81,1.32,2.25,1.52,1.38.04,2.4-.88,2.58-2.25.14-1.07-.56-1.28-.78-1.47-.53-.48.12-1.54-.11-2.67-.3-1.51-1.93-2.29-3.36-1.35-.48.31-.82.77-1.26,1.12-.6.47-.68.15-1.16.24-.88.16-1.33,1.5-1.33,2.28Z"/>
        <path class="cls-1" d="M84.19,69.7c.76.29,1.95-.45,2.36-1.1.06.03-.35.57-.33,1.31.02.61.43,1.33,1.03,1.51.71.11,1.82-.44,2.23-1.02.94-1.32.41-3.49-1.26-3.21-.65.11-1.15.59-1.52,1.11.67-1.76-.53-3.45-2.17-2.49-.85.5-1.33,1.58-1.2,2.55.06.47.39,1.15.86,1.33Z"/>
        <path class="cls-1" d="M90.33,70.93c-.85-.4-2.24.33-2.72,1.06-.97,1.48.01,3.32,1.8,2.77,1.86-.58,2.2-3.23.92-3.83Z"/>
        <path class="cls-1" d="M82.38,67.49c-1.47-.74-3.07,1.52-2.43,3.04.73,1.72,3.06.79,3.29-.99.08-.64-.24-1.74-.86-2.05Z"/>
      </g>
      <g>
        <path class="cls-1" d="M91.93,121.27c.26.65.92,1.12,1.59,1.28,1.07.25,1.46-.33,2.3-.03.54.19,1.24.93,2.65.59,1.3-.47,1.91-1.7,1.57-3.03-.26-1.05-.99-.98-1.26-1.08-.67-.25-.45-1.48-1.08-2.44-.84-1.29-2.64-1.43-3.63-.03-.33.46-.48,1.02-.76,1.5-.38.66-.57.39-.99.65-.76.47-.69,1.88-.4,2.61Z"/>
        <path class="cls-1" d="M94.46,114.96c.82,0,1.65-1.14,1.79-1.89.07,0-.12.66.17,1.34.24.56.88,1.08,1.51,1.03.71-.16,1.54-1.07,1.71-1.76.39-1.57-.9-3.4-2.35-2.52-.57.34-.86.97-1,1.59-.03-1.89-1.76-3.02-2.93-1.52-.61.78-.66,1.96-.18,2.81.23.42.78.93,1.28.92Z"/>
        <path class="cls-1" d="M100.63,113.86c-.94-.06-1.97,1.13-2.14,1.99-.36,1.73,1.23,3.09,2.69,1.91,1.52-1.22.87-3.81-.54-3.9Z"/>
        <path class="cls-1" d="M91.97,113.57c-1.64-.15-2.3,2.54-1.14,3.71,1.31,1.33,3.14-.38,2.7-2.12-.16-.63-.86-1.53-1.55-1.59Z"/>
      </g>
      <g>
        <path class="cls-1" d="M73.3,103.82c.09.69.62,1.32,1.22,1.63.97.5,1.5.04,2.24.54.48.32.97,1.21,2.42,1.22,1.37-.13,2.27-1.17,2.28-2.55,0-1.08-.72-1.2-.96-1.36-.58-.41-.07-1.55-.44-2.63-.49-1.46-2.2-2.03-3.51-.92-.43.37-.72.87-1.11,1.27-.53.54-.65.24-1.12.38-.86.27-1.14,1.65-1.04,2.42Z"/>
        <path class="cls-1" d="M77.32,98.33c.79.19,1.88-.69,2.2-1.38.07.02-.28.61-.16,1.34.09.6.59,1.26,1.21,1.37.72.02,1.75-.66,2.09-1.29.77-1.43-.03-3.52-1.65-3.02-.63.19-1.07.73-1.37,1.29.44-1.83-.96-3.36-2.47-2.2-.78.6-1.12,1.73-.87,2.68.12.46.53,1.09,1.01,1.21Z"/>
        <path class="cls-1" d="M83.56,98.79c-.9-.29-2.19.61-2.57,1.39-.77,1.59.43,3.29,2.13,2.52,1.78-.81,1.78-3.47.44-3.91Z"/>
        <path class="cls-1" d="M75.24,96.36c-1.55-.55-2.86,1.89-2.03,3.31.94,1.62,3.14.41,3.14-1.39,0-.65-.46-1.7-1.11-1.93Z"/>
      </g>
      <g>
        <path class="cls-1" d="M91.06,149.61c.26.65.92,1.12,1.59,1.28,1.07.25,1.46-.33,2.3-.03.54.19,1.24.93,2.65.59,1.3-.47,1.91-1.7,1.57-3.03-.26-1.05-.99-.98-1.26-1.08-.67-.25-.45-1.48-1.08-2.44-.84-1.29-2.64-1.43-3.63-.03-.33.46-.48,1.02-.76,1.5-.38.66-.57.39-.99.65-.76.47-.69,1.88-.4,2.61Z"/>
        <path class="cls-1" d="M93.59,143.31c.82,0,1.65-1.14,1.79-1.89.07,0-.12.66.17,1.34.24.56.88,1.08,1.51,1.03.71-.16,1.54-1.07,1.71-1.76.39-1.57-.9-3.4-2.35-2.52-.57.34-.86.97-1,1.59-.03-1.89-1.76-3.02-2.93-1.52-.61.78-.66,1.96-.18,2.81.23.42.78.93,1.28.92Z"/>
        <path class="cls-1" d="M99.75,142.2c-.94-.06-1.97,1.13-2.14,1.99-.36,1.73,1.23,3.09,2.69,1.91,1.52-1.22.87-3.81-.54-3.9Z"/>
        <path class="cls-1" d="M91.09,141.91c-1.64-.15-2.3,2.54-1.14,3.71,1.31,1.33,3.14-.38,2.7-2.12-.16-.63-.86-1.53-1.55-1.59Z"/>
      </g>
      <g>
        <path class="cls-1" d="M72.43,132.16c.09.69.62,1.32,1.22,1.63.97.5,1.5.04,2.24.54.48.32.97,1.21,2.42,1.22,1.37-.13,2.27-1.17,2.28-2.55,0-1.08-.72-1.2-.96-1.36-.58-.41-.07-1.55-.44-2.63-.49-1.46-2.2-2.03-3.51-.92-.43.37-.72.87-1.11,1.27-.53.54-.65.24-1.12.38-.86.27-1.14,1.65-1.04,2.42Z"/>
        <path class="cls-1" d="M76.44,126.68c.79.19,1.88-.69,2.2-1.38.07.02-.28.61-.16,1.34.09.6.59,1.26,1.21,1.37.72.02,1.75-.66,2.09-1.29.77-1.43-.03-3.52-1.65-3.02-.63.19-1.07.73-1.37,1.29.44-1.83-.96-3.36-2.47-2.2-.78.6-1.12,1.73-.87,2.68.12.46.53,1.09,1.01,1.21Z"/>
        <path class="cls-1" d="M82.69,127.13c-.9-.29-2.19.61-2.57,1.39-.77,1.59.43,3.29,2.13,2.52,1.78-.81,1.78-3.47.44-3.91Z"/>
        <path class="cls-1" d="M74.37,124.71c-1.55-.55-2.86,1.89-2.03,3.31.94,1.62,3.14.41,3.14-1.39,0-.65-.46-1.7-1.11-1.93Z"/>
      </g>
      <g>
        <path class="cls-1" d="M105.7,63.94c-.11.69.22,1.44.71,1.91.79.76,1.42.46,2,1.15.37.44.59,1.43,1.98,1.86,1.35.26,2.51-.48,2.9-1.8.31-1.04-.35-1.35-.53-1.58-.44-.56.37-1.5.33-2.65-.06-1.54-1.54-2.57-3.1-1.88-.52.23-.93.63-1.43.9-.66.37-.69.04-1.18.05-.9.02-1.56,1.26-1.68,2.03Z"/>
        <path class="cls-1" d="M111.1,59.82c.7.41,2-.13,2.51-.7.06.04-.44.51-.54,1.24-.08.6.21,1.38.77,1.66.69.23,1.87-.14,2.37-.64,1.14-1.15.97-3.38-.73-3.37-.66,0-1.23.4-1.68.85.94-1.63.03-3.49-1.74-2.81-.92.36-1.56,1.35-1.59,2.32-.01.48.2,1.2.63,1.45Z"/>
        <path class="cls-1" d="M116.97,62.02c-.78-.53-2.27-.04-2.86.61-1.19,1.31-.52,3.28,1.33,3.02,1.93-.27,2.69-2.83,1.53-3.63Z"/>
        <path class="cls-1" d="M109.67,57.34c-1.33-.97-3.28,1-2.88,2.61.44,1.82,2.89,1.28,3.4-.44.18-.62.04-1.76-.52-2.16Z"/>
      </g>
      <path class="cls-1" d="M2.86,141.32c-1.08.18-2.11-.55-2.3-1.64-.06-.39-.01-.76.13-1.1.16-.38.09-.79-.19-1.09-.3-.33-.49-.77-.5-1.27-.03-.84.52-1.64,1.31-1.93,1-.36,2.02.11,2.46.96.18.35.58.52.96.46l3.97-.67c.41-.07.74-.38.81-.79.15-.93.96-1.68,2.01-1.67.84,0,1.61.59,1.86,1.4.16.51.1,1.01-.09,1.44-.15.33-.09.7.16.96.27.28.46.64.53,1.06.18,1.09-.55,2.11-1.63,2.3-.91.15-1.77-.33-2.14-1.12-.13-.29-.42-.47-.73-.42l-4.16.7c-.42.07-.74.4-.82.82-.14.81-.78,1.47-1.63,1.61Z"/>
      <path class="cls-1" d="M127.82,9.2c-.15-1.09.61-2.1,1.7-2.25.39-.05.76,0,1.1.16.37.17.79.11,1.1-.16.34-.29.79-.47,1.29-.47.84,0,1.63.56,1.89,1.36.33,1.01-.17,2.02-1.03,2.43-.35.17-.54.56-.48.95l.56,3.99c.06.41.36.75.77.83.92.18,1.65,1.01,1.61,2.05-.03.84-.64,1.59-1.45,1.82-.51.14-1.01.08-1.43-.13-.32-.16-.7-.11-.97.13-.29.26-.65.45-1.07.5-1.09.15-2.1-.61-2.25-1.69-.13-.91.38-1.76,1.18-2.11.29-.12.48-.4.44-.72l-.58-4.18c-.06-.42-.38-.75-.8-.84-.8-.17-1.45-.82-1.57-1.68Z"/>
      <g>
        <path class="cls-1" d="M48.81,1.92c-.26-.65-.92-1.12-1.59-1.28-1.07-.25-1.46.33-2.3.03-.54-.19-1.24-.93-2.65-.59-1.3.47-1.91,1.7-1.57,3.03.26,1.05.99.98,1.26,1.08.67.25.45,1.48,1.08,2.44.84,1.29,2.64,1.43,3.63.03.33-.46.48-1.02.76-1.5.38-.66.57-.39.99-.65.76-.47.69-1.88.4-2.61Z"/>
        <path class="cls-1" d="M46.28,8.23c-.82,0-1.65,1.14-1.79,1.89-.07,0,.12-.66-.17-1.34-.24-.56-.88-1.08-1.51-1.03-.71.16-1.54,1.07-1.71,1.76-.39,1.57.9,3.4,2.35,2.52.57-.34.86-.97,1-1.59.03,1.89,1.76,3.02,2.93,1.52.61-.78.66-1.96.18-2.81-.23-.42-.78-.93-1.28-.92Z"/>
        <path class="cls-1" d="M40.12,9.34c.94.06,1.97-1.13,2.14-1.99.36-1.73-1.23-3.09-2.69-1.91-1.52,1.22-.87,3.81.54,3.9Z"/>
        <path class="cls-1" d="M48.78,9.62c1.64.15,2.3-2.54,1.14-3.71-1.31-1.33-3.14.38-2.7,2.12.16.63.86,1.53,1.55,1.59Z"/>
      </g>
      <g>
        <path class="cls-1" d="M67.44,19.37c-.09-.69-.62-1.32-1.22-1.63-.97-.5-1.5-.04-2.24-.54-.48-.32-.97-1.21-2.42-1.22-1.37.13-2.27,1.17-2.28,2.55,0,1.08.72,1.2.96,1.36.58.41.07,1.55.44,2.63.49,1.46,2.2,2.03,3.51.92.43-.37.72-.87,1.11-1.27.53-.54.65-.24,1.12-.38.86-.27,1.14-1.65,1.04-2.42Z"/>
        <path class="cls-1" d="M63.43,24.86c-.79-.19-1.88.69-2.2,1.38-.07-.02.28-.61.16-1.34-.09-.6-.59-1.26-1.21-1.37-.72-.02-1.75.66-2.09,1.29-.77,1.43.03,3.52,1.65,3.02.63-.19,1.07-.73,1.37-1.29-.44,1.83.96,3.36,2.47,2.2.78-.6,1.12-1.73.87-2.68-.12-.46-.53-1.09-1.01-1.21Z"/>
        <path class="cls-1" d="M57.18,24.4c.9.29,2.19-.61,2.57-1.39.77-1.59-.43-3.29-2.13-2.52-1.78.81-1.78,3.47-.44,3.91Z"/>
        <path class="cls-1" d="M65.5,26.83c1.55.55,2.86-1.89,2.03-3.31-.94-1.62-3.14-.41-3.14,1.39,0,.65.46,1.7,1.11,1.93Z"/>
      </g>
      <g>
        <path class="cls-1" d="M44.4,30.33c-.26-.65-.92-1.12-1.59-1.28-1.07-.25-1.46.33-2.3.03-.54-.19-1.24-.93-2.65-.59-1.3.47-1.91,1.7-1.57,3.03.26,1.05.99.98,1.26,1.08.67.25.45,1.48,1.08,2.44.84,1.29,2.64,1.43,3.63.03.33-.46.48-1.02.76-1.5.38-.66.57-.39.99-.65.76-.47.69-1.88.4-2.61Z"/>
        <path class="cls-1" d="M41.87,36.64c-.82,0-1.65,1.14-1.79,1.89-.07,0,.12-.66-.17-1.34-.24-.56-.88-1.08-1.51-1.03-.71.16-1.54,1.07-1.71,1.76-.39,1.57.9,3.4,2.35,2.52.57-.34.86-.97,1-1.59.03,1.89,1.76,3.02,2.93,1.52.61-.78.66-1.96.18-2.81-.23-.42-.78-.93-1.28-.92Z"/>
        <path class="cls-1" d="M35.71,37.74c.94.06,1.97-1.13,2.14-1.99.36-1.73-1.23-3.09-2.69-1.91-1.52,1.22-.87,3.81.54,3.9Z"/>
        <path class="cls-1" d="M44.37,38.03c1.64.15,2.3-2.54,1.14-3.71-1.31-1.33-3.14.38-2.7,2.12.16.63.86,1.53,1.55,1.59Z"/>
      </g>
      <g>
        <path class="cls-1" d="M63.03,47.78c-.09-.69-.62-1.32-1.22-1.63-.97-.5-1.5-.04-2.24-.54-.48-.32-.97-1.21-2.42-1.22-1.37.13-2.27,1.17-2.28,2.55,0,1.08.72,1.2.96,1.36.58.41.07,1.55.44,2.63.49,1.46,2.2,2.03,3.51.92.43-.37.72-.87,1.11-1.27.53-.54.65-.24,1.12-.38.86-.27,1.14-1.65,1.04-2.42Z"/>
        <path class="cls-1" d="M59.02,53.26c-.79-.19-1.88.69-2.2,1.38-.07-.02.28-.61.16-1.34-.09-.6-.59-1.26-1.21-1.37-.72-.02-1.75.66-2.09,1.29-.77,1.43.03,3.52,1.65,3.02.63-.19,1.07-.73,1.37-1.29-.44,1.83.96,3.36,2.47,2.2.78-.6,1.12-1.73.87-2.68-.12-.46-.53-1.09-1.01-1.21Z"/>
        <path class="cls-1" d="M52.77,52.81c.9.29,2.19-.61,2.57-1.39.77-1.59-.43-3.29-2.13-2.52-1.78.81-1.78,3.47-.44,3.91Z"/>
        <path class="cls-1" d="M61.09,55.23c1.55.55,2.86-1.89,2.03-3.31-.94-1.62-3.14-.41-3.14,1.39,0,.65.46,1.7,1.11,1.93Z"/>
      </g>
      <g>
        <path class="cls-1" d="M44.54,56.07c-.11-.69-.66-1.3-1.27-1.59-.99-.47-1.5,0-2.25-.47-.49-.31-1-1.18-2.46-1.15-1.37.17-2.24,1.24-2.2,2.61.03,1.08.75,1.17,1,1.33.6.39.12,1.54.51,2.62.53,1.44,2.26,1.97,3.53.82.42-.38.69-.89,1.07-1.3.52-.56.65-.26,1.11-.42.85-.3,1.09-1.68.96-2.45Z"/>
        <path class="cls-1" d="M40.69,61.67c-.8-.17-1.86.75-2.16,1.45-.07-.02.26-.62.12-1.35-.11-.6-.62-1.25-1.25-1.33-.72,0-1.73.71-2.05,1.35-.73,1.45.13,3.51,1.74,2.97.63-.21,1.05-.76,1.33-1.33-.39,1.85,1.06,3.33,2.53,2.13.76-.62,1.07-1.77.79-2.7-.14-.46-.56-1.08-1.05-1.18Z"/>
        <path class="cls-1" d="M34.43,61.4c.91.27,2.17-.67,2.53-1.47.73-1.61-.52-3.28-2.2-2.46-1.75.86-1.68,3.53-.32,3.92Z"/>
        <path class="cls-1" d="M42.82,63.58c1.57.51,2.8-1.97,1.93-3.37-.99-1.59-3.15-.31-3.09,1.48.02.65.51,1.68,1.17,1.89Z"/>
      </g>
      <g>
        <path class="cls-1" d="M58.9,77.18c.06-.69-.31-1.42-.84-1.86-.84-.7-1.45-.36-2.07-1.02-.4-.42-.68-1.39-2.1-1.73-1.37-.17-2.47.64-2.78,1.99-.24,1.05.44,1.32.63,1.54.48.53-.27,1.53-.15,2.67.16,1.53,1.7,2.47,3.22,1.67.5-.26.89-.69,1.36-.99.64-.41.69-.09,1.18-.13.9-.08,1.47-1.36,1.54-2.14Z"/>
        <path class="cls-1" d="M53.78,81.65c-.73-.36-1.99.26-2.45.87-.06-.03.4-.53.45-1.27.04-.61-.3-1.36-.88-1.6-.7-.18-1.86.26-2.32.8-1.06,1.22-.74,3.44.95,3.31.66-.05,1.2-.48,1.62-.96-.83,1.69.2,3.49,1.93,2.69.9-.42,1.47-1.45,1.43-2.42-.02-.48-.28-1.18-.72-1.4Z"/>
        <path class="cls-1" d="M47.79,79.84c.81.48,2.27-.11,2.81-.8,1.1-1.38.31-3.31-1.53-2.93-1.91.4-2.5,3-1.28,3.72Z"/>
        <path class="cls-1" d="M55.37,84.03c1.4.88,3.2-1.22,2.71-2.79-.56-1.78-2.97-1.08-3.37.67-.14.63.08,1.75.66,2.12Z"/>
      </g>
      <g>
        <path class="cls-1" d="M35.55,83.09c-.11-.69-.66-1.3-1.27-1.59-.99-.47-1.5,0-2.25-.47-.49-.31-1-1.18-2.46-1.15-1.37.17-2.24,1.24-2.2,2.61.03,1.08.75,1.17,1,1.33.6.39.12,1.54.51,2.62.53,1.44,2.26,1.97,3.53.82.42-.38.69-.89,1.07-1.3.52-.56.65-.26,1.11-.42.85-.3,1.09-1.68.96-2.45Z"/>
        <path class="cls-1" d="M31.7,88.69c-.8-.17-1.86.75-2.16,1.45-.07-.02.26-.62.12-1.35-.11-.6-.62-1.25-1.25-1.33-.72,0-1.73.71-2.05,1.35-.73,1.45.13,3.51,1.74,2.97.63-.21,1.05-.76,1.33-1.33-.39,1.85,1.06,3.33,2.53,2.13.76-.62,1.07-1.77.79-2.7-.14-.46-.56-1.08-1.05-1.18Z"/>
        <path class="cls-1" d="M25.44,88.42c.91.27,2.17-.67,2.53-1.47.73-1.61-.52-3.28-2.2-2.46-1.75.86-1.68,3.53-.32,3.92Z"/>
        <path class="cls-1" d="M33.83,90.6c1.57.51,2.8-1.97,1.93-3.37-.99-1.59-3.15-.31-3.09,1.48.02.65.51,1.68,1.17,1.89Z"/>
      </g>
      <g>
        <path class="cls-1" d="M49.9,104.2c.06-.69-.31-1.42-.84-1.86-.84-.7-1.45-.36-2.07-1.02-.4-.42-.68-1.39-2.1-1.73-1.37-.17-2.47.64-2.78,1.99-.24,1.05.44,1.32.63,1.54.48.53-.27,1.53-.15,2.67.16,1.53,1.7,2.47,3.22,1.67.5-.26.89-.69,1.36-.99.64-.41.69-.09,1.18-.13.9-.08,1.47-1.36,1.54-2.14Z"/>
        <path class="cls-1" d="M44.79,108.67c-.73-.36-1.99.26-2.45.87-.06-.03.4-.53.45-1.27.04-.61-.3-1.36-.88-1.6-.7-.18-1.86.26-2.32.8-1.06,1.22-.74,3.44.95,3.31.66-.05,1.2-.48,1.62-.96-.83,1.69.2,3.49,1.93,2.69.9-.42,1.47-1.45,1.43-2.42-.02-.48-.28-1.18-.72-1.4Z"/>
        <path class="cls-1" d="M38.79,106.86c.81.48,2.27-.11,2.81-.8,1.1-1.38.31-3.31-1.53-2.93-1.91.4-2.5,3-1.28,3.72Z"/>
        <path class="cls-1" d="M46.38,111.05c1.4.88,3.2-1.22,2.71-2.79-.56-1.78-2.97-1.08-3.37.67-.14.63.08,1.75.66,2.12Z"/>
      </g>
      <g>
        <path class="cls-1" d="M21.68,106.16c-.11-.69-.66-1.3-1.27-1.59-.99-.47-1.5,0-2.25-.47-.49-.31-1-1.18-2.46-1.15-1.37.17-2.24,1.24-2.2,2.61.03,1.08.75,1.17,1,1.33.6.39.12,1.54.51,2.62.53,1.44,2.26,1.97,3.53.82.42-.38.69-.89,1.07-1.3.52-.56.65-.26,1.11-.42.85-.3,1.09-1.68.96-2.45Z"/>
        <path class="cls-1" d="M17.83,111.76c-.8-.17-1.86.75-2.16,1.45-.07-.02.26-.62.12-1.35-.11-.6-.62-1.25-1.25-1.33-.72,0-1.73.71-2.05,1.35-.73,1.45.13,3.51,1.74,2.97.63-.21,1.05-.76,1.33-1.33-.39,1.85,1.06,3.33,2.53,2.13.76-.62,1.07-1.77.79-2.7-.14-.46-.56-1.08-1.05-1.18Z"/>
        <path class="cls-1" d="M11.57,111.49c.91.27,2.17-.67,2.53-1.47.73-1.61-.52-3.28-2.2-2.46-1.75.86-1.68,3.53-.32,3.92Z"/>
        <path class="cls-1" d="M19.96,113.67c1.57.51,2.8-1.97,1.93-3.37-.99-1.59-3.15-.31-3.09,1.48.02.65.51,1.68,1.17,1.89Z"/>
      </g>
      <g>
        <path class="cls-1" d="M36.04,127.27c.06-.69-.31-1.42-.84-1.86-.84-.7-1.45-.36-2.07-1.02-.4-.42-.68-1.39-2.1-1.73-1.37-.17-2.47.64-2.78,1.99-.24,1.05.44,1.32.63,1.54.48.53-.27,1.53-.15,2.67.16,1.53,1.7,2.47,3.22,1.67.5-.26.89-.69,1.36-.99.64-.41.69-.09,1.18-.13.9-.08,1.47-1.36,1.54-2.14Z"/>
        <path class="cls-1" d="M30.92,131.74c-.73-.36-1.99.26-2.45.87-.06-.03.4-.53.45-1.27.04-.61-.3-1.36-.88-1.6-.7-.18-1.86.26-2.32.8-1.06,1.22-.74,3.44.95,3.31.66-.05,1.2-.48,1.62-.96-.83,1.69.2,3.49,1.93,2.69.9-.42,1.47-1.45,1.43-2.42-.02-.48-.28-1.18-.72-1.4Z"/>
        <path class="cls-1" d="M24.93,129.93c.81.48,2.27-.11,2.81-.8,1.1-1.38.31-3.31-1.53-2.93-1.91.4-2.5,3-1.28,3.72Z"/>
        <path class="cls-1" d="M32.51,134.12c1.4.88,3.2-1.22,2.71-2.79-.56-1.78-2.97-1.08-3.37.67-.14.63.08,1.75.66,2.12Z"/>
      </g>
    </g>
  </g>
</svg>