<?xml version="1.0" encoding="UTF-8"?>
<svg id="Layer_2" data-name="Layer 2" xmlns="http://www.w3.org/2000/svg" viewBox="0 0 40.96 42.97">
  <defs>
    <style>
      .cls-1 {
        fill: #f2f2f2;
        stroke-width: 0px;
      }
    </style>
  </defs>
  <g id="Layer_1-2" data-name="Layer 1">
    <g>
      <path class="cls-1" d="M7.4,37.86c1.06,2.16,3.5,3.64,5.85,3.99,3.76.57,4.96-1.55,7.96-.73,1.93.53,4.54,2.89,9.33,1.31,4.36-1.98,6.15-6.38,4.63-10.92-1.2-3.56-3.69-3.13-4.66-3.41-2.38-.69-1.97-5-4.38-8.16-3.24-4.25-9.51-4.22-12.56.88-1.01,1.69-1.39,3.66-2.24,5.41-1.15,2.37-1.88,1.51-3.25,2.51-2.52,1.85-1.89,6.69-.69,9.13Z"/>
      <path class="cls-1" d="M14.45,15.36c2.82-.25,5.4-4.38,5.69-7.01.24-.01-.23,2.31.97,4.59.98,1.87,3.35,3.49,5.51,3.15,2.4-.73,5.02-4.13,5.43-6.57.93-5.54-4.02-11.52-8.82-8.09-1.87,1.34-2.7,3.59-3.04,5.78-.6-6.52-6.9-9.98-10.57-4.47-1.9,2.85-1.74,6.95.14,9.77.92,1.38,2.96,3,4.69,2.85Z"/>
      <path class="cls-1" d="M35.49,9.86c-3.27.04-6.51,4.44-6.88,7.45-.76,6.09,5.08,10.35,9.82,5.9,4.94-4.64,1.98-13.41-2.94-13.35Z"/>
      <path class="cls-1" d="M5.43,11.2c-5.72-.08-7.28,9.4-2.96,13.16,4.9,4.26,10.76-2.18,8.76-8.07-.72-2.13-3.4-5.06-5.8-5.09Z"/>
    </g>
  </g>
</svg>