<?xml version="1.0" encoding="UTF-8"?>
<svg id="Layer_2" data-name="Layer 2" xmlns="http://www.w3.org/2000/svg" viewBox="0 0 139.94 108.88">
  <defs>
    <style>
      .cls-1 {
        fill: #406f6f;
        stroke-width: 0px;
      }
    </style>
  </defs>
  <g id="Layer_1-2" data-name="Layer 1">
    <g>
      <g>
        <path class="cls-1" d="M45.71,88.5c-.59.36-1.41.33-2.04.05-1-.45-.96-1.15-1.81-1.42-.55-.17-1.55,0-2.47-1.14-.75-1.16-.5-2.51.58-3.37.84-.68,1.38-.18,1.66-.1.68.2,1.26-.91,2.33-1.29,1.45-.52,2.96.46,2.9,2.17-.02.57-.23,1.1-.3,1.66-.09.75.22.66.4,1.11.32.84-.59,1.91-1.26,2.32Z"/>
        <path class="cls-1" d="M47.51,81.95c-.64-.5-.63-1.9-.29-2.59-.06-.04-.3.6-.95.96-.53.3-1.36.33-1.83-.09-.47-.55-.57-1.78-.29-2.44.64-1.49,2.77-2.17,3.4-.58.24.61.1,1.29-.16,1.87,1.16-1.49,3.23-1.34,3.26.56.02.99-.66,1.96-1.56,2.34-.44.19-1.18.26-1.58-.04Z"/>
        <path class="cls-1" d="M43.27,77.34c.79.52.88,2.09.51,2.88-.76,1.6-2.85,1.72-3.3-.1-.47-1.89,1.61-3.56,2.79-2.78Z"/>
        <path class="cls-1" d="M50.34,82.35c1.4.87.3,3.41-1.34,3.65-1.85.27-2.27-2.21-.86-3.32.51-.4,1.61-.69,2.2-.33Z"/>
      </g>
      <g>
        <path class="cls-1" d="M66.56,61.84c-.59.36-1.41.33-2.04.05-1-.45-.96-1.15-1.81-1.42-.55-.17-1.55,0-2.47-1.14-.75-1.16-.5-2.51.58-3.37.84-.68,1.38-.18,1.66-.1.68.2,1.26-.91,2.33-1.29,1.45-.52,2.96.46,2.9,2.17-.02.57-.23,1.1-.3,1.66-.09.75.22.66.4,1.11.32.84-.59,1.91-1.26,2.32Z"/>
        <path class="cls-1" d="M68.36,55.29c-.64-.5-.63-1.9-.29-2.59-.06-.04-.3.6-.95.96-.53.3-1.36.33-1.83-.09-.47-.55-.57-1.78-.29-2.44.64-1.49,2.77-2.17,3.4-.58.24.61.1,1.29-.16,1.87,1.16-1.49,3.23-1.34,3.26.56.02.99-.66,1.96-1.56,2.34-.44.19-1.18.26-1.58-.04Z"/>
        <path class="cls-1" d="M64.12,50.68c.79.52.88,2.09.51,2.88-.76,1.6-2.85,1.72-3.3-.1-.47-1.89,1.61-3.56,2.79-2.78Z"/>
        <path class="cls-1" d="M71.19,55.69c1.4.87.3,3.41-1.34,3.65-1.85.27-2.27-2.21-.86-3.32.51-.4,1.61-.69,2.2-.33Z"/>
      </g>
      <g>
        <path class="cls-1" d="M57.15,76.95c-.11.69.22,1.44.71,1.91.79.76,1.42.46,2,1.15.37.44.59,1.43,1.98,1.86,1.35.26,2.51-.48,2.9-1.8.31-1.04-.35-1.35-.53-1.58-.44-.56.37-1.5.33-2.65-.06-1.54-1.54-2.57-3.1-1.88-.52.23-.93.63-1.43.9-.66.37-.69.04-1.18.05-.9.02-1.56,1.26-1.68,2.03Z"/>
        <path class="cls-1" d="M62.55,72.82c.7.41,2-.13,2.51-.7.06.04-.44.51-.54,1.24-.08.6.21,1.38.77,1.66.69.23,1.87-.14,2.37-.64,1.14-1.15.97-3.38-.73-3.37-.66,0-1.23.4-1.68.85.94-1.63.03-3.49-1.74-2.81-.92.36-1.56,1.35-1.59,2.32-.01.48.2,1.2.63,1.45Z"/>
        <path class="cls-1" d="M68.41,75.03c-.78-.53-2.27-.04-2.86.61-1.19,1.31-.52,3.28,1.33,3.02,1.93-.27,2.69-2.83,1.53-3.63Z"/>
        <path class="cls-1" d="M61.12,70.35c-1.33-.97-3.28,1-2.88,2.61.44,1.82,2.89,1.28,3.4-.44.18-.62.04-1.76-.52-2.16Z"/>
      </g>
      <g>
        <path class="cls-1" d="M84.03,58.79c-.59.36-1.41.33-2.04.05-1-.45-.96-1.15-1.81-1.42-.55-.17-1.55,0-2.47-1.14-.75-1.16-.5-2.51.58-3.37.84-.68,1.38-.18,1.66-.1.68.2,1.26-.91,2.33-1.29,1.45-.52,2.96.46,2.9,2.17-.02.57-.23,1.1-.3,1.66-.09.75.22.66.4,1.11.32.84-.59,1.91-1.26,2.32Z"/>
        <path class="cls-1" d="M85.83,52.24c-.64-.5-.63-1.9-.29-2.59-.06-.04-.3.6-.95.96-.53.3-1.36.33-1.83-.09-.47-.55-.57-1.78-.29-2.44.64-1.49,2.77-2.17,3.4-.58.24.61.1,1.29-.16,1.87,1.16-1.49,3.23-1.34,3.26.56.02.99-.66,1.96-1.56,2.34-.44.19-1.18.26-1.58-.04Z"/>
        <path class="cls-1" d="M81.59,47.63c.79.52.88,2.09.51,2.88-.76,1.6-2.85,1.72-3.3-.1-.47-1.89,1.61-3.56,2.79-2.78Z"/>
        <path class="cls-1" d="M88.66,52.64c1.4.87.3,3.41-1.34,3.65-1.85.27-2.27-2.21-.86-3.32.51-.4,1.61-.69,2.2-.33Z"/>
      </g>
      <g>
        <path class="cls-1" d="M77.79,76.62c-.11.69.22,1.44.71,1.91.79.76,1.42.46,2,1.15.37.44.59,1.43,1.98,1.86,1.35.26,2.51-.48,2.9-1.8.31-1.04-.35-1.35-.53-1.58-.44-.56.37-1.5.33-2.65-.06-1.54-1.54-2.57-3.1-1.88-.52.23-.93.63-1.43.9-.66.37-.69.04-1.18.05-.9.02-1.56,1.26-1.68,2.03Z"/>
        <path class="cls-1" d="M83.19,72.5c.7.41,2-.13,2.51-.7.06.04-.44.51-.54,1.24-.08.6.21,1.38.77,1.66.69.23,1.87-.14,2.37-.64,1.14-1.15.97-3.38-.73-3.37-.66,0-1.23.4-1.68.85.94-1.63.03-3.49-1.74-2.81-.92.36-1.56,1.35-1.59,2.32-.01.48.2,1.2.63,1.45Z"/>
        <path class="cls-1" d="M89.05,74.7c-.78-.53-2.27-.04-2.86.61-1.19,1.31-.52,3.28,1.33,3.02,1.93-.27,2.69-2.83,1.53-3.63Z"/>
        <path class="cls-1" d="M81.76,70.02c-1.33-.97-3.28,1-2.88,2.61.44,1.82,2.89,1.28,3.4-.44.18-.62.04-1.76-.52-2.16Z"/>
      </g>
      <g>
        <path class="cls-1" d="M122.93,49.08c-.59.36-1.41.33-2.04.05-1-.45-.96-1.15-1.81-1.42-.55-.17-1.55,0-2.47-1.14-.75-1.16-.5-2.51.58-3.37.84-.68,1.38-.18,1.66-.1.68.2,1.26-.91,2.33-1.29,1.45-.52,2.96.46,2.9,2.17-.02.57-.23,1.1-.3,1.66-.09.75.22.66.4,1.11.32.84-.59,1.91-1.26,2.32Z"/>
        <path class="cls-1" d="M124.73,42.53c-.64-.5-.63-1.9-.29-2.59-.06-.04-.3.6-.95.96-.53.3-1.36.33-1.83-.09-.47-.55-.57-1.78-.29-2.44.64-1.49,2.77-2.17,3.4-.58.24.61.1,1.29-.16,1.87,1.16-1.49,3.23-1.34,3.26.56.02.99-.66,1.96-1.56,2.34-.44.19-1.18.26-1.58-.04Z"/>
        <path class="cls-1" d="M120.49,37.92c.79.52.88,2.09.51,2.88-.76,1.6-2.85,1.72-3.3-.1-.47-1.89,1.61-3.56,2.79-2.78Z"/>
        <path class="cls-1" d="M127.56,42.93c1.4.87.3,3.41-1.34,3.65-1.85.27-2.27-2.21-.86-3.32.51-.4,1.61-.69,2.2-.33Z"/>
      </g>
      <g>
        <path class="cls-1" d="M99.89,63.64c-.11.69.22,1.44.71,1.91.79.76,1.42.46,2,1.15.37.44.59,1.43,1.98,1.86,1.35.26,2.51-.48,2.9-1.8.31-1.04-.35-1.35-.53-1.58-.44-.56.37-1.5.33-2.65-.06-1.54-1.54-2.57-3.1-1.88-.52.23-.93.63-1.43.9-.66.37-.69.04-1.18.05-.9.02-1.56,1.26-1.68,2.03Z"/>
        <path class="cls-1" d="M105.29,59.52c.7.41,2-.13,2.51-.7.06.04-.44.51-.54,1.24-.08.6.21,1.38.77,1.66.69.23,1.87-.14,2.37-.64,1.14-1.15.97-3.38-.73-3.37-.66,0-1.23.4-1.68.85.94-1.63.03-3.49-1.74-2.81-.92.36-1.56,1.35-1.59,2.32-.01.48.2,1.2.63,1.45Z"/>
        <path class="cls-1" d="M111.16,61.72c-.78-.53-2.27-.04-2.86.61-1.19,1.31-.52,3.28,1.33,3.02,1.93-.27,2.69-2.83,1.53-3.63Z"/>
        <path class="cls-1" d="M103.86,57.04c-1.33-.97-3.28,1-2.88,2.61.44,1.82,2.89,1.28,3.4-.44.18-.62.04-1.76-.52-2.16Z"/>
      </g>
      <g>
        <path class="cls-1" d="M118.36,30.41c-.59.36-1.41.33-2.04.05-1-.45-.96-1.15-1.81-1.42-.55-.17-1.55,0-2.47-1.14-.75-1.16-.5-2.51.58-3.37.84-.68,1.38-.18,1.66-.1.68.2,1.26-.91,2.33-1.29,1.45-.52,2.96.46,2.9,2.17-.02.57-.23,1.1-.3,1.66-.09.75.22.66.4,1.11.32.84-.59,1.91-1.26,2.32Z"/>
        <path class="cls-1" d="M120.16,23.86c-.64-.5-.63-1.9-.29-2.59-.06-.04-.3.6-.95.96-.53.3-1.36.33-1.83-.09-.47-.55-.57-1.78-.29-2.44.64-1.49,2.77-2.17,3.4-.58.24.61.1,1.29-.16,1.87,1.16-1.49,3.23-1.34,3.26.56.02.99-.66,1.96-1.56,2.34-.44.19-1.18.26-1.58-.04Z"/>
        <path class="cls-1" d="M115.93,19.25c.79.52.88,2.09.51,2.88-.76,1.6-2.85,1.72-3.3-.1-.47-1.89,1.61-3.56,2.79-2.78Z"/>
        <path class="cls-1" d="M123,24.26c1.4.87.3,3.41-1.34,3.65-1.85.27-2.27-2.21-.86-3.32.51-.4,1.61-.69,2.2-.33Z"/>
      </g>
      <g>
        <path class="cls-1" d="M95.98,40.33c-.11.69.22,1.44.71,1.91.79.76,1.42.46,2,1.15.37.44.59,1.43,1.98,1.86,1.35.26,2.51-.48,2.9-1.8.31-1.04-.35-1.35-.53-1.58-.44-.56.37-1.5.33-2.65-.06-1.54-1.54-2.57-3.1-1.88-.52.23-.93.63-1.43.9-.66.37-.69.04-1.18.05-.9.02-1.56,1.26-1.68,2.03Z"/>
        <path class="cls-1" d="M101.38,36.2c.7.41,2-.13,2.51-.7.06.04-.44.51-.54,1.24-.08.6.21,1.38.77,1.66.69.23,1.87-.14,2.37-.64,1.14-1.15.97-3.38-.73-3.37-.66,0-1.23.4-1.68.85.94-1.63.03-3.49-1.74-2.81-.92.36-1.56,1.35-1.59,2.32-.01.48.2,1.2.63,1.45Z"/>
        <path class="cls-1" d="M107.24,38.4c-.78-.53-2.27-.04-2.86.61-1.19,1.31-.52,3.28,1.33,3.02,1.93-.27,2.69-2.83,1.53-3.63Z"/>
        <path class="cls-1" d="M99.95,33.72c-1.33-.97-3.28,1-2.88,2.61.44,1.82,2.89,1.28,3.4-.44.18-.62.04-1.76-.52-2.16Z"/>
      </g>
      <g>
        <path class="cls-1" d="M133.64,12.2c-.59.36-1.41.33-2.04.05-1-.45-.96-1.15-1.81-1.42-.55-.17-1.55,0-2.47-1.14-.75-1.16-.5-2.51.58-3.37.84-.68,1.38-.18,1.66-.1.68.2,1.26-.91,2.33-1.29,1.45-.52,2.96.46,2.9,2.17-.02.57-.23,1.1-.3,1.66-.09.75.22.66.4,1.11.32.84-.59,1.91-1.26,2.32Z"/>
        <path class="cls-1" d="M135.44,5.65c-.64-.5-.63-1.9-.29-2.59-.06-.04-.3.6-.95.96-.53.3-1.36.33-1.83-.09-.47-.55-.57-1.78-.29-2.44.64-1.49,2.77-2.17,3.4-.58.24.61.1,1.29-.16,1.87,1.16-1.49,3.23-1.34,3.26.56.02.99-.66,1.96-1.56,2.34-.44.19-1.18.26-1.58-.04Z"/>
        <path class="cls-1" d="M131.2,1.04c.79.52.88,2.09.51,2.88-.76,1.6-2.85,1.72-3.3-.1-.47-1.89,1.61-3.56,2.79-2.78Z"/>
        <path class="cls-1" d="M138.27,6.05c1.4.87.3,3.41-1.34,3.65-1.85.27-2.27-2.21-.86-3.32.51-.4,1.61-.69,2.2-.33Z"/>
      </g>
      <g>
        <path class="cls-1" d="M128.13,27.31c-.11.69.22,1.44.71,1.91.79.76,1.42.46,2,1.15.37.44.59,1.43,1.98,1.86,1.35.26,2.51-.48,2.9-1.8.31-1.04-.35-1.35-.53-1.58-.44-.56.37-1.5.33-2.65-.06-1.54-1.54-2.57-3.1-1.88-.52.23-.93.63-1.43.9-.66.37-.69.04-1.18.05-.9.02-1.56,1.26-1.68,2.03Z"/>
        <path class="cls-1" d="M133.53,23.19c.7.41,2-.13,2.51-.7.06.04-.44.51-.54,1.24-.08.6.21,1.38.77,1.66.69.23,1.87-.14,2.37-.64,1.14-1.15.97-3.38-.73-3.37-.66,0-1.23.4-1.68.85.94-1.63.03-3.49-1.74-2.81-.92.36-1.56,1.35-1.59,2.32-.01.48.2,1.2.63,1.45Z"/>
        <path class="cls-1" d="M139.39,25.39c-.78-.53-2.27-.04-2.86.61-1.19,1.31-.52,3.28,1.33,3.02,1.93-.27,2.69-2.83,1.53-3.63Z"/>
        <path class="cls-1" d="M132.1,20.71c-1.33-.97-3.28,1-2.88,2.61.44,1.82,2.89,1.28,3.4-.44.18-.62.04-1.76-.52-2.16Z"/>
      </g>
      <g>
        <path class="cls-1" d="M8.43,90.07c-.59.36-1.41.33-2.04.05-1-.45-.96-1.15-1.81-1.42-.55-.17-1.55,0-2.47-1.14-.75-1.16-.5-2.51.58-3.37.84-.68,1.38-.18,1.66-.1.68.2,1.26-.91,2.33-1.29,1.45-.52,2.96.46,2.9,2.17-.02.57-.23,1.1-.3,1.66-.09.75.22.66.4,1.11.32.84-.59,1.91-1.26,2.32Z"/>
        <path class="cls-1" d="M10.23,83.51c-.64-.5-.63-1.9-.29-2.59-.06-.04-.3.6-.95.96-.53.3-1.36.33-1.83-.09-.47-.55-.57-1.78-.29-2.44.64-1.49,2.77-2.17,3.4-.58.24.61.1,1.29-.16,1.87,1.16-1.49,3.23-1.34,3.26.56.02.99-.66,1.96-1.56,2.34-.44.19-1.18.26-1.58-.04Z"/>
        <path class="cls-1" d="M5.99,78.9c.79.52.88,2.09.51,2.88-.76,1.6-2.85,1.72-3.3-.1-.47-1.89,1.61-3.56,2.79-2.78Z"/>
        <path class="cls-1" d="M13.07,83.91c1.4.87.3,3.41-1.34,3.65-1.85.27-2.27-2.21-.86-3.32.51-.4,1.61-.69,2.2-.33Z"/>
      </g>
      <g>
        <path class="cls-1" d="M.02,103.91c-.11.69.22,1.44.71,1.91.79.76,1.42.46,2,1.15.37.44.59,1.43,1.98,1.86,1.35.26,2.51-.48,2.9-1.8.31-1.04-.35-1.35-.53-1.58-.44-.56.37-1.5.33-2.65-.06-1.54-1.54-2.57-3.1-1.88-.52.23-.93.63-1.43.9-.66.37-.69.04-1.18.05-.9.02-1.56,1.26-1.68,2.03Z"/>
        <path class="cls-1" d="M5.42,99.78c.7.41,2-.13,2.51-.7.06.04-.44.51-.54,1.24-.08.6.21,1.38.77,1.66.69.23,1.87-.14,2.37-.64,1.14-1.15.97-3.38-.73-3.37-.66,0-1.23.4-1.68.85.94-1.63.03-3.49-1.74-2.81-.92.36-1.56,1.35-1.59,2.32-.01.48.2,1.2.63,1.45Z"/>
        <path class="cls-1" d="M11.28,101.99c-.78-.53-2.27-.04-2.86.61-1.19,1.31-.52,3.28,1.33,3.02,1.93-.27,2.69-2.83,1.53-3.63Z"/>
        <path class="cls-1" d="M3.99,97.31c-1.33-.97-3.28,1-2.88,2.61.44,1.82,2.89,1.28,3.4-.44.18-.62.04-1.76-.52-2.16Z"/>
      </g>
      <g>
        <path class="cls-1" d="M29.7,79.63c-.59.36-1.41.33-2.04.05-1-.45-.96-1.15-1.81-1.42-.55-.17-1.55,0-2.47-1.14-.75-1.16-.5-2.51.58-3.37.84-.68,1.38-.18,1.66-.1.68.2,1.26-.91,2.33-1.29,1.45-.52,2.96.46,2.9,2.17-.02.57-.23,1.1-.3,1.66-.09.75.22.66.4,1.11.32.84-.59,1.91-1.26,2.32Z"/>
        <path class="cls-1" d="M31.5,73.08c-.64-.5-.63-1.9-.29-2.59-.06-.04-.3.6-.95.96-.53.3-1.36.33-1.83-.09-.47-.55-.57-1.78-.29-2.44.64-1.49,2.77-2.17,3.4-.58.24.61.1,1.29-.16,1.87,1.16-1.49,3.23-1.34,3.26.56.02.99-.66,1.96-1.56,2.34-.44.19-1.18.26-1.58-.04Z"/>
        <path class="cls-1" d="M27.26,68.47c.79.52.88,2.09.51,2.88-.76,1.6-2.85,1.72-3.3-.1-.47-1.89,1.61-3.56,2.79-2.78Z"/>
        <path class="cls-1" d="M34.33,73.48c1.4.87.3,3.41-1.34,3.65-1.85.27-2.27-2.21-.86-3.32.51-.4,1.61-.69,2.2-.33Z"/>
      </g>
      <g>
        <path class="cls-1" d="M17.14,97.4c-.11.69.22,1.44.71,1.91.79.76,1.42.46,2,1.15.37.44.59,1.43,1.98,1.86,1.35.26,2.51-.48,2.9-1.8.31-1.04-.35-1.35-.53-1.58-.44-.56.37-1.5.33-2.65-.06-1.54-1.54-2.57-3.1-1.88-.52.23-.93.63-1.43.9-.66.37-.69.04-1.18.05-.9.02-1.56,1.26-1.68,2.03Z"/>
        <path class="cls-1" d="M22.54,93.28c.7.41,2-.13,2.51-.7.06.04-.44.51-.54,1.24-.08.6.21,1.38.77,1.66.69.23,1.87-.14,2.37-.64,1.14-1.15.97-3.38-.73-3.37-.66,0-1.23.4-1.68.85.94-1.63.03-3.49-1.74-2.81-.92.36-1.56,1.35-1.59,2.32-.01.48.2,1.2.63,1.45Z"/>
        <path class="cls-1" d="M28.41,95.48c-.78-.53-2.27-.04-2.86.61-1.19,1.31-.52,3.28,1.33,3.02,1.93-.27,2.69-2.83,1.53-3.63Z"/>
        <path class="cls-1" d="M21.11,90.8c-1.33-.97-3.28,1-2.88,2.61.44,1.82,2.89,1.28,3.4-.44.18-.62.04-1.76-.52-2.16Z"/>
      </g>
      <g>
        <path class="cls-1" d="M49.97,64.71c-.59.36-1.41.33-2.04.05-1-.45-.96-1.15-1.81-1.42-.55-.17-1.55,0-2.47-1.14-.75-1.16-.5-2.51.58-3.37.84-.68,1.38-.18,1.66-.1.68.2,1.26-.91,2.33-1.29,1.45-.52,2.96.46,2.9,2.17-.02.57-.23,1.1-.3,1.66-.09.75.22.66.4,1.11.32.84-.59,1.91-1.26,2.32Z"/>
        <path class="cls-1" d="M51.77,58.16c-.64-.5-.63-1.9-.29-2.59-.06-.04-.3.6-.95.96-.53.3-1.36.33-1.83-.09-.47-.55-.57-1.78-.29-2.44.64-1.49,2.77-2.17,3.4-.58.24.61.1,1.29-.16,1.87,1.16-1.49,3.23-1.34,3.26.56.02.99-.66,1.96-1.56,2.34-.44.19-1.18.26-1.58-.04Z"/>
        <path class="cls-1" d="M47.53,53.55c.79.52.88,2.09.51,2.88-.76,1.6-2.85,1.72-3.3-.1-.47-1.89,1.61-3.56,2.79-2.78Z"/>
        <path class="cls-1" d="M54.61,58.56c1.4.87.3,3.41-1.34,3.65-1.85.27-2.27-2.21-.86-3.32.51-.4,1.61-.69,2.2-.33Z"/>
      </g>
    </g>
  </g>
</svg>