<?xml version="1.0" encoding="UTF-8"?>
<svg id="Layer_2" data-name="Layer 2" xmlns="http://www.w3.org/2000/svg" viewBox="0 0 141.47 147.99">
  <defs>
    <style>
      .cls-1 {
        fill: #406f6f;
        stroke-width: 0px;
      }
    </style>
  </defs>
  <g id="Layer_1-2" data-name="Layer 1">
    <g>
      <g>
        <path class="cls-1" d="M59.16,80.83c-.59.36-1.41.33-2.04.05-1-.45-.96-1.15-1.81-1.42-.55-.17-1.55,0-2.47-1.14-.75-1.16-.5-2.51.58-3.37.84-.68,1.38-.18,1.66-.1.68.2,1.26-.91,2.33-1.29,1.45-.52,2.96.46,2.9,2.17-.02.57-.23,1.1-.3,1.66-.09.75.22.66.4,1.11.32.84-.59,1.91-1.26,2.32Z"/>
        <path class="cls-1" d="M60.96,74.28c-.64-.5-.63-1.9-.29-2.59-.06-.04-.3.6-.95.96-.53.3-1.36.33-1.83-.09-.47-.55-.57-1.78-.29-2.44.64-1.49,2.77-2.17,3.4-.58.24.61.1,1.29-.16,1.87,1.16-1.49,3.23-1.34,3.26.56.02.99-.66,1.96-1.56,2.34-.44.19-1.18.26-1.58-.04Z"/>
        <path class="cls-1" d="M56.72,69.67c.79.52.88,2.09.51,2.88-.76,1.6-2.85,1.72-3.3-.1-.47-1.89,1.61-3.56,2.79-2.78Z"/>
        <path class="cls-1" d="M63.79,74.68c1.4.87.3,3.41-1.34,3.65-1.85.27-2.27-2.21-.86-3.32.51-.4,1.61-.69,2.2-.33Z"/>
      </g>
      <g>
        <path class="cls-1" d="M74.44,61.85c-.59.36-1.41.33-2.04.05-1-.45-.96-1.15-1.81-1.42-.55-.17-1.55,0-2.47-1.14-.75-1.16-.5-2.51.58-3.37.84-.68,1.38-.18,1.66-.1.68.2,1.26-.91,2.33-1.29,1.45-.52,2.96.46,2.9,2.17-.02.57-.23,1.1-.3,1.66-.09.75.22.66.4,1.11.32.84-.59,1.91-1.26,2.32Z"/>
        <path class="cls-1" d="M76.24,55.3c-.64-.5-.63-1.9-.29-2.59-.06-.04-.3.6-.95.96-.53.3-1.36.33-1.83-.09-.47-.55-.57-1.78-.29-2.44.64-1.49,2.77-2.17,3.4-.58.24.61.1,1.29-.16,1.87,1.16-1.49,3.23-1.34,3.26.56.02.99-.66,1.96-1.56,2.34-.44.19-1.18.26-1.58-.04Z"/>
        <path class="cls-1" d="M72,50.69c.79.52.88,2.09.51,2.88-.76,1.6-2.85,1.72-3.3-.1-.47-1.89,1.61-3.56,2.79-2.78Z"/>
        <path class="cls-1" d="M79.07,55.7c1.4.87.3,3.41-1.34,3.65-1.85.27-2.27-2.21-.86-3.32.51-.4,1.61-.69,2.2-.33Z"/>
      </g>
      <g>
        <path class="cls-1" d="M65.83,91.94c-.11.69.22,1.44.71,1.91.79.76,1.42.46,2,1.15.37.44.59,1.43,1.98,1.86,1.35.26,2.51-.48,2.9-1.8.31-1.04-.35-1.35-.53-1.58-.44-.56.37-1.5.33-2.65-.06-1.54-1.54-2.57-3.1-1.88-.52.23-.93.63-1.43.9-.66.37-.69.04-1.18.05-.9.02-1.56,1.26-1.68,2.03Z"/>
        <path class="cls-1" d="M71.23,87.82c.7.41,2-.13,2.51-.7.06.04-.44.51-.54,1.24-.08.6.21,1.38.77,1.66.69.23,1.87-.14,2.37-.64,1.14-1.15.97-3.38-.73-3.37-.66,0-1.23.4-1.68.85.94-1.63.03-3.49-1.74-2.81-.92.36-1.56,1.35-1.59,2.32-.01.48.2,1.2.63,1.45Z"/>
        <path class="cls-1" d="M77.09,90.02c-.78-.53-2.27-.04-2.86.61-1.19,1.31-.52,3.28,1.33,3.02,1.93-.27,2.69-2.83,1.53-3.63Z"/>
        <path class="cls-1" d="M69.8,85.34c-1.33-.97-3.28,1-2.88,2.61.44,1.82,2.89,1.28,3.4-.44.18-.62.04-1.76-.52-2.16Z"/>
      </g>
      <g>
        <path class="cls-1" d="M75.78,73.75c-.11.69.22,1.44.71,1.91.79.76,1.42.46,2,1.15.37.44.59,1.43,1.98,1.86,1.35.26,2.51-.48,2.9-1.8.31-1.04-.35-1.35-.53-1.58-.44-.56.37-1.5.33-2.65-.06-1.54-1.54-2.57-3.1-1.88-.52.23-.93.63-1.43.9-.66.37-.69.04-1.18.05-.9.02-1.56,1.26-1.68,2.03Z"/>
        <path class="cls-1" d="M81.18,69.63c.7.41,2-.13,2.51-.7.06.04-.44.51-.54,1.24-.08.6.21,1.38.77,1.66.69.23,1.87-.14,2.37-.64,1.14-1.15.97-3.38-.73-3.37-.66,0-1.23.4-1.68.85.94-1.63.03-3.49-1.74-2.81-.92.36-1.56,1.35-1.59,2.32-.01.48.2,1.2.63,1.45Z"/>
        <path class="cls-1" d="M87.04,71.83c-.78-.53-2.27-.04-2.86.61-1.19,1.31-.52,3.28,1.33,3.02,1.93-.27,2.69-2.83,1.53-3.63Z"/>
        <path class="cls-1" d="M79.75,67.15c-1.33-.97-3.28,1-2.88,2.61.44,1.82,2.89,1.28,3.4-.44.18-.62.04-1.76-.52-2.16Z"/>
      </g>
      <g>
        <path class="cls-1" d="M86.35,45.25c-.59.36-1.41.33-2.04.05-1-.45-.96-1.15-1.81-1.42-.55-.17-1.55,0-2.47-1.14-.75-1.16-.5-2.51.58-3.37.84-.68,1.38-.18,1.66-.1.68.2,1.26-.91,2.33-1.29,1.45-.52,2.96.46,2.9,2.17-.02.57-.23,1.1-.3,1.66-.09.75.22.66.4,1.11.32.84-.59,1.91-1.26,2.32Z"/>
        <path class="cls-1" d="M88.15,38.7c-.64-.5-.63-1.9-.29-2.59-.06-.04-.3.6-.95.96-.53.3-1.36.33-1.83-.09-.47-.55-.57-1.78-.29-2.44.64-1.49,2.77-2.17,3.4-.58.24.61.1,1.29-.16,1.87,1.16-1.49,3.23-1.34,3.26.56.02.99-.66,1.96-1.56,2.34-.44.19-1.18.26-1.58-.04Z"/>
        <path class="cls-1" d="M83.92,34.09c.79.52.88,2.09.51,2.88-.76,1.6-2.85,1.72-3.3-.1-.47-1.89,1.61-3.56,2.79-2.78Z"/>
        <path class="cls-1" d="M90.99,39.1c1.4.87.3,3.41-1.34,3.65-1.85.27-2.27-2.21-.86-3.32.51-.4,1.61-.69,2.2-.33Z"/>
      </g>
      <g>
        <path class="cls-1" d="M87.7,57.15c-.11.69.22,1.44.71,1.91.79.76,1.42.46,2,1.15.37.44.59,1.43,1.98,1.86,1.35.26,2.51-.48,2.9-1.8.31-1.04-.35-1.35-.53-1.58-.44-.56.37-1.5.33-2.65-.06-1.54-1.54-2.57-3.1-1.88-.52.23-.93.63-1.43.9-.66.37-.69.04-1.18.05-.9.02-1.56,1.26-1.68,2.03Z"/>
        <path class="cls-1" d="M93.1,53.02c.7.41,2-.13,2.51-.7.06.04-.44.51-.54,1.24-.08.6.21,1.38.77,1.66.69.23,1.87-.14,2.37-.64,1.14-1.15.97-3.38-.73-3.37-.66,0-1.23.4-1.68.85.94-1.63.03-3.49-1.74-2.81-.92.36-1.56,1.35-1.59,2.32-.01.48.2,1.2.63,1.45Z"/>
        <path class="cls-1" d="M98.96,55.23c-.78-.53-2.27-.04-2.86.61-1.19,1.31-.52,3.28,1.33,3.02,1.93-.27,2.69-2.83,1.53-3.63Z"/>
        <path class="cls-1" d="M91.67,50.55c-1.33-.97-3.28,1-2.88,2.61.44,1.82,2.89,1.28,3.4-.44.18-.62.04-1.76-.52-2.16Z"/>
      </g>
      <g>
        <path class="cls-1" d="M94.3,25.9c-.59.36-1.41.33-2.04.05-1-.45-.96-1.15-1.81-1.42-.55-.17-1.55,0-2.47-1.14-.75-1.16-.5-2.51.58-3.37.84-.68,1.38-.18,1.66-.1.68.2,1.26-.91,2.33-1.29,1.45-.52,2.96.46,2.9,2.17-.02.57-.23,1.1-.3,1.66-.09.75.22.66.4,1.11.32.84-.59,1.91-1.26,2.32Z"/>
        <path class="cls-1" d="M96.1,19.34c-.64-.5-.63-1.9-.29-2.59-.06-.04-.3.6-.95.96-.53.3-1.36.33-1.83-.09-.47-.55-.57-1.78-.29-2.44.64-1.49,2.77-2.17,3.4-.58.24.61.1,1.29-.16,1.87,1.16-1.49,3.23-1.34,3.26.56.02.99-.66,1.96-1.56,2.34-.44.19-1.18.26-1.58-.04Z"/>
        <path class="cls-1" d="M91.87,14.73c.79.52.88,2.09.51,2.88-.76,1.6-2.85,1.72-3.3-.1-.47-1.89,1.61-3.56,2.79-2.78Z"/>
        <path class="cls-1" d="M98.94,19.74c1.4.87.3,3.41-1.34,3.65-1.85.27-2.27-2.21-.86-3.32.51-.4,1.61-.69,2.2-.33Z"/>
      </g>
      <g>
        <path class="cls-1" d="M95.65,37.79c-.11.69.22,1.44.71,1.91.79.76,1.42.46,2,1.15.37.44.59,1.43,1.98,1.86,1.35.26,2.51-.48,2.9-1.8.31-1.04-.35-1.35-.53-1.58-.44-.56.37-1.5.33-2.65-.06-1.54-1.54-2.57-3.1-1.88-.52.23-.93.63-1.43.9-.66.37-.69.04-1.18.05-.9.02-1.56,1.26-1.68,2.03Z"/>
        <path class="cls-1" d="M101.05,33.67c.7.41,2-.13,2.51-.7.06.04-.44.51-.54,1.24-.08.6.21,1.38.77,1.66.69.23,1.87-.14,2.37-.64,1.14-1.15.97-3.38-.73-3.37-.66,0-1.23.4-1.68.85.94-1.63.03-3.49-1.74-2.81-.92.36-1.56,1.35-1.59,2.32-.01.48.2,1.2.63,1.45Z"/>
        <path class="cls-1" d="M106.91,35.87c-.78-.53-2.27-.04-2.86.61-1.19,1.31-.52,3.28,1.33,3.02,1.93-.27,2.69-2.83,1.53-3.63Z"/>
        <path class="cls-1" d="M99.62,31.19c-1.33-.97-3.28,1-2.88,2.61.44,1.82,2.89,1.28,3.4-.44.18-.62.04-1.76-.52-2.16Z"/>
      </g>
      <g>
        <path class="cls-1" d="M112.21,19.16c-.59.36-1.41.33-2.04.05-1-.45-.96-1.15-1.81-1.42-.55-.17-1.55,0-2.47-1.14-.75-1.16-.5-2.51.58-3.37.84-.68,1.38-.18,1.66-.1.68.2,1.26-.91,2.33-1.29,1.45-.52,2.96.46,2.9,2.17-.02.57-.23,1.1-.3,1.66-.09.75.22.66.4,1.11.32.84-.59,1.91-1.26,2.32Z"/>
        <path class="cls-1" d="M114.01,12.6c-.64-.5-.63-1.9-.29-2.59-.06-.04-.3.6-.95.96-.53.3-1.36.33-1.83-.09-.47-.55-.57-1.78-.29-2.44.64-1.49,2.77-2.17,3.4-.58.24.61.1,1.29-.16,1.87,1.16-1.49,3.23-1.34,3.26.56.02.99-.66,1.96-1.56,2.34-.44.19-1.18.26-1.58-.04Z"/>
        <path class="cls-1" d="M109.77,7.99c.79.52.88,2.09.51,2.88-.76,1.6-2.85,1.72-3.3-.1-.47-1.89,1.61-3.56,2.79-2.78Z"/>
        <path class="cls-1" d="M116.84,13c1.4.87.3,3.41-1.34,3.65-1.85.27-2.27-2.21-.86-3.32.51-.4,1.61-.69,2.2-.33Z"/>
      </g>
      <g>
        <path class="cls-1" d="M113.55,31.05c-.11.69.22,1.44.71,1.91.79.76,1.42.46,2,1.15.37.44.59,1.43,1.98,1.86,1.35.26,2.51-.48,2.9-1.8.31-1.04-.35-1.35-.53-1.58-.44-.56.37-1.5.33-2.65-.06-1.54-1.54-2.57-3.1-1.88-.52.23-.93.63-1.43.9-.66.37-.69.04-1.18.05-.9.02-1.56,1.26-1.68,2.03Z"/>
        <path class="cls-1" d="M118.95,26.93c.7.41,2-.13,2.51-.7.06.04-.44.51-.54,1.24-.08.6.21,1.38.77,1.66.69.23,1.87-.14,2.37-.64,1.14-1.15.97-3.38-.73-3.37-.66,0-1.23.4-1.68.85.94-1.63.03-3.49-1.74-2.81-.92.36-1.56,1.35-1.59,2.32-.01.48.2,1.2.63,1.45Z"/>
        <path class="cls-1" d="M124.82,29.13c-.78-.53-2.27-.04-2.86.61-1.19,1.31-.52,3.28,1.33,3.02,1.93-.27,2.69-2.83,1.53-3.63Z"/>
        <path class="cls-1" d="M117.52,24.45c-1.33-.97-3.28,1-2.88,2.61.44,1.82,2.89,1.28,3.4-.44.18-.62.04-1.76-.52-2.16Z"/>
      </g>
      <g>
        <path class="cls-1" d="M128.31,12.2c-.59.36-1.41.33-2.04.05-1-.45-.96-1.15-1.81-1.42-.55-.17-1.55,0-2.47-1.14-.75-1.16-.5-2.51.58-3.37.84-.68,1.38-.18,1.66-.1.68.2,1.26-.91,2.33-1.29,1.45-.52,2.96.46,2.9,2.17-.02.57-.23,1.1-.3,1.66-.09.75.22.66.4,1.11.32.84-.59,1.91-1.26,2.32Z"/>
        <path class="cls-1" d="M130.11,5.65c-.64-.5-.63-1.9-.29-2.59-.06-.04-.3.6-.95.96-.53.3-1.36.33-1.83-.09-.47-.55-.57-1.78-.29-2.44.64-1.49,2.77-2.17,3.4-.58.24.61.1,1.29-.16,1.87,1.16-1.49,3.23-1.34,3.26.56.02.99-.66,1.96-1.56,2.34-.44.19-1.18.26-1.58-.04Z"/>
        <path class="cls-1" d="M125.87,1.04c.79.52.88,2.09.51,2.88-.76,1.6-2.85,1.72-3.3-.1-.47-1.89,1.61-3.56,2.79-2.78Z"/>
        <path class="cls-1" d="M132.94,6.05c1.4.87.3,3.41-1.34,3.65-1.85.27-2.27-2.21-.86-3.32.51-.4,1.61-.69,2.2-.33Z"/>
      </g>
      <g>
        <path class="cls-1" d="M129.65,24.1c-.11.69.22,1.44.71,1.91.79.76,1.42.46,2,1.15.37.44.59,1.43,1.98,1.86,1.35.26,2.51-.48,2.9-1.8.31-1.04-.35-1.35-.53-1.58-.44-.56.37-1.5.33-2.65-.06-1.54-1.54-2.57-3.1-1.88-.52.23-.93.63-1.43.9-.66.37-.69.04-1.18.05-.9.02-1.56,1.26-1.68,2.03Z"/>
        <path class="cls-1" d="M135.05,19.97c.7.41,2-.13,2.51-.7.06.04-.44.51-.54,1.24-.08.6.21,1.38.77,1.66.69.23,1.87-.14,2.37-.64,1.14-1.15.97-3.38-.73-3.37-.66,0-1.23.4-1.68.85.94-1.63.03-3.49-1.74-2.81-.92.36-1.56,1.35-1.59,2.32-.01.48.2,1.2.63,1.45Z"/>
        <path class="cls-1" d="M140.91,22.18c-.78-.53-2.27-.04-2.86.61-1.19,1.31-.52,3.28,1.33,3.02,1.93-.27,2.69-2.83,1.53-3.63Z"/>
        <path class="cls-1" d="M133.62,17.5c-1.33-.97-3.28,1-2.88,2.61.44,1.82,2.89,1.28,3.4-.44.18-.62.04-1.76-.52-2.16Z"/>
      </g>
      <g>
        <path class="cls-1" d="M6.75,132.15c-.59.36-1.41.33-2.04.05-1-.45-.96-1.15-1.81-1.42-.55-.17-1.55,0-2.47-1.14-.75-1.16-.5-2.51.58-3.37.84-.68,1.38-.18,1.66-.1.68.2,1.26-.91,2.33-1.29,1.45-.52,2.96.46,2.9,2.17-.02.57-.23,1.1-.3,1.66-.09.75.22.66.4,1.11.32.84-.59,1.91-1.26,2.32Z"/>
        <path class="cls-1" d="M8.55,125.6c-.64-.5-.63-1.9-.29-2.59-.06-.04-.3.6-.95.96-.53.3-1.36.33-1.83-.09-.47-.55-.57-1.78-.29-2.44.64-1.49,2.77-2.17,3.4-.58.24.61.1,1.29-.16,1.87,1.16-1.49,3.23-1.34,3.26.56.02.99-.66,1.96-1.56,2.34-.44.19-1.18.26-1.58-.04Z"/>
        <path class="cls-1" d="M4.31,120.99c.79.52.88,2.09.51,2.88-.76,1.6-2.85,1.72-3.3-.1-.47-1.89,1.61-3.56,2.79-2.78Z"/>
        <path class="cls-1" d="M11.38,126c1.4.87.3,3.41-1.34,3.65-1.85.27-2.27-2.21-.86-3.32.51-.4,1.61-.69,2.2-.33Z"/>
      </g>
      <g>
        <path class="cls-1" d="M6.03,143.02c-.11.69.22,1.44.71,1.91.79.76,1.42.46,2,1.15.37.44.59,1.43,1.98,1.86,1.35.26,2.51-.48,2.9-1.8.31-1.04-.35-1.35-.53-1.58-.44-.56.37-1.5.33-2.65-.06-1.54-1.54-2.57-3.1-1.88-.52.23-.93.63-1.43.9-.66.37-.69.04-1.18.05-.9.02-1.56,1.26-1.68,2.03Z"/>
        <path class="cls-1" d="M11.43,138.9c.7.41,2-.13,2.51-.7.06.04-.44.51-.54,1.24-.08.6.21,1.38.77,1.66.69.23,1.87-.14,2.37-.64,1.14-1.15.97-3.38-.73-3.37-.66,0-1.23.4-1.68.85.94-1.63.03-3.49-1.74-2.81-.92.36-1.56,1.35-1.59,2.32-.01.48.2,1.2.63,1.45Z"/>
        <path class="cls-1" d="M17.3,141.1c-.78-.53-2.27-.04-2.86.61-1.19,1.31-.52,3.28,1.33,3.02,1.93-.27,2.69-2.83,1.53-3.63Z"/>
        <path class="cls-1" d="M10,136.42c-1.33-.97-3.28,1-2.88,2.61.44,1.82,2.89,1.28,3.4-.44.18-.62.04-1.76-.52-2.16Z"/>
      </g>
      <g>
        <path class="cls-1" d="M24.93,124.97c-.59.36-1.41.33-2.04.05-1-.45-.96-1.15-1.81-1.42-.55-.17-1.55,0-2.47-1.14-.75-1.16-.5-2.51.58-3.37.84-.68,1.38-.18,1.66-.1.68.2,1.26-.91,2.33-1.29,1.45-.52,2.96.46,2.9,2.17-.02.57-.23,1.1-.3,1.66-.09.75.22.66.4,1.11.32.84-.59,1.91-1.26,2.32Z"/>
        <path class="cls-1" d="M26.73,118.42c-.64-.5-.63-1.9-.29-2.59-.06-.04-.3.6-.95.96-.53.3-1.36.33-1.83-.09-.47-.55-.57-1.78-.29-2.44.64-1.49,2.77-2.17,3.4-.58.24.61.1,1.29-.16,1.87,1.16-1.49,3.23-1.34,3.26.56.02.99-.66,1.96-1.56,2.34-.44.19-1.18.26-1.58-.04Z"/>
        <path class="cls-1" d="M22.49,113.81c.79.52.88,2.09.51,2.88-.76,1.6-2.85,1.72-3.3-.1-.47-1.89,1.61-3.56,2.79-2.78Z"/>
        <path class="cls-1" d="M29.56,118.82c1.4.87.3,3.41-1.34,3.65-1.85.27-2.27-2.21-.86-3.32.51-.4,1.61-.69,2.2-.33Z"/>
      </g>
      <g>
        <path class="cls-1" d="M23.15,136.51c-.11.69.22,1.44.71,1.91.79.76,1.42.46,2,1.15.37.44.59,1.43,1.98,1.86,1.35.26,2.51-.48,2.9-1.8.31-1.04-.35-1.35-.53-1.58-.44-.56.37-1.5.33-2.65-.06-1.54-1.54-2.57-3.1-1.88-.52.23-.93.63-1.43.9-.66.37-.69.04-1.18.05-.9.02-1.56,1.26-1.68,2.03Z"/>
        <path class="cls-1" d="M28.55,132.39c.7.41,2-.13,2.51-.7.06.04-.44.51-.54,1.24-.08.6.21,1.38.77,1.66.69.23,1.87-.14,2.37-.64,1.14-1.15.97-3.38-.73-3.37-.66,0-1.23.4-1.68.85.94-1.63.03-3.49-1.74-2.81-.92.36-1.56,1.35-1.59,2.32-.01.48.2,1.2.63,1.45Z"/>
        <path class="cls-1" d="M34.42,134.59c-.78-.53-2.27-.04-2.86.61-1.19,1.31-.52,3.28,1.33,3.02,1.93-.27,2.69-2.83,1.53-3.63Z"/>
        <path class="cls-1" d="M27.12,129.91c-1.33-.97-3.28,1-2.88,2.61.44,1.82,2.89,1.28,3.4-.44.18-.62.04-1.76-.52-2.16Z"/>
      </g>
      <g>
        <path class="cls-1" d="M50.56,101.77c-.59.36-1.41.33-2.04.05-1-.45-.96-1.15-1.81-1.42-.55-.17-1.55,0-2.47-1.14-.75-1.16-.5-2.51.58-3.37.84-.68,1.38-.18,1.66-.1.68.2,1.26-.91,2.33-1.29,1.45-.52,2.96.46,2.9,2.17-.02.57-.23,1.1-.3,1.66-.09.75.22.66.4,1.11.32.84-.59,1.91-1.26,2.32Z"/>
        <path class="cls-1" d="M52.36,95.22c-.64-.5-.63-1.9-.29-2.59-.06-.04-.3.6-.95.96-.53.3-1.36.33-1.83-.09-.47-.55-.57-1.78-.29-2.44.64-1.49,2.77-2.17,3.4-.58.24.61.1,1.29-.16,1.87,1.16-1.49,3.23-1.34,3.26.56.02.99-.66,1.96-1.56,2.34-.44.19-1.18.26-1.58-.04Z"/>
        <path class="cls-1" d="M48.12,90.61c.79.52.88,2.09.51,2.88-.76,1.6-2.85,1.72-3.3-.1-.47-1.89,1.61-3.56,2.79-2.78Z"/>
        <path class="cls-1" d="M55.19,95.62c1.4.87.3,3.41-1.34,3.65-1.85.27-2.27-2.21-.86-3.32.51-.4,1.61-.69,2.2-.33Z"/>
      </g>
      <g>
        <path class="cls-1" d="M40.27,128.33c-.11.69.22,1.44.71,1.91.79.76,1.42.46,2,1.15.37.44.59,1.43,1.98,1.86,1.35.26,2.51-.48,2.9-1.8.31-1.04-.35-1.35-.53-1.58-.44-.56.37-1.5.33-2.65-.06-1.54-1.54-2.57-3.1-1.88-.52.23-.93.63-1.43.9-.66.37-.69.04-1.18.05-.9.02-1.56,1.26-1.68,2.03Z"/>
        <path class="cls-1" d="M45.67,124.21c.7.41,2-.13,2.51-.7.06.04-.44.51-.54,1.24-.08.6.21,1.38.77,1.66.69.23,1.87-.14,2.37-.64,1.14-1.15.97-3.38-.73-3.37-.66,0-1.23.4-1.68.85.94-1.63.03-3.49-1.74-2.81-.92.36-1.56,1.35-1.59,2.32-.01.48.2,1.2.63,1.45Z"/>
        <path class="cls-1" d="M51.54,126.41c-.78-.53-2.27-.04-2.86.61-1.19,1.31-.52,3.28,1.33,3.02,1.93-.27,2.69-2.83,1.53-3.63Z"/>
        <path class="cls-1" d="M44.24,121.73c-1.33-.97-3.28,1-2.88,2.61.44,1.82,2.89,1.28,3.4-.44.18-.62.04-1.76-.52-2.16Z"/>
      </g>
      <g>
        <path class="cls-1" d="M59.27,113.8c-.11.69.22,1.44.71,1.91.79.76,1.42.46,2,1.15.37.44.59,1.43,1.98,1.86,1.35.26,2.51-.48,2.9-1.8.31-1.04-.35-1.35-.53-1.58-.44-.56.37-1.5.33-2.65-.06-1.54-1.54-2.57-3.1-1.88-.52.23-.93.63-1.43.9-.66.37-.69.04-1.18.05-.9.02-1.56,1.26-1.68,2.03Z"/>
        <path class="cls-1" d="M64.67,109.67c.7.41,2-.13,2.51-.7.06.04-.44.51-.54,1.24-.08.6.21,1.38.77,1.66.69.23,1.87-.14,2.37-.64,1.14-1.15.97-3.38-.73-3.37-.66,0-1.23.4-1.68.85.94-1.63.03-3.49-1.74-2.81-.92.36-1.56,1.35-1.59,2.32-.01.48.2,1.2.63,1.45Z"/>
        <path class="cls-1" d="M70.53,111.88c-.78-.53-2.27-.04-2.86.61-1.19,1.31-.52,3.28,1.33,3.02,1.93-.27,2.69-2.83,1.53-3.63Z"/>
        <path class="cls-1" d="M63.24,107.2c-1.33-.97-3.28,1-2.88,2.61.44,1.82,2.89,1.28,3.4-.44.18-.62.04-1.76-.52-2.16Z"/>
      </g>
      <g>
        <path class="cls-1" d="M34.35,110.79c-.11.69.22,1.44.71,1.91.79.76,1.42.46,2,1.15.37.44.59,1.43,1.98,1.86,1.35.26,2.51-.48,2.9-1.8.31-1.04-.35-1.35-.53-1.58-.44-.56.37-1.5.33-2.65-.06-1.54-1.54-2.57-3.1-1.88-.52.23-.93.63-1.43.9-.66.37-.69.04-1.18.05-.9.02-1.56,1.26-1.68,2.03Z"/>
        <path class="cls-1" d="M39.76,106.67c.7.41,2-.13,2.51-.7.06.04-.44.51-.54,1.24-.08.6.21,1.38.77,1.66.69.23,1.87-.14,2.37-.64,1.14-1.15.97-3.38-.73-3.37-.66,0-1.23.4-1.68.85.94-1.63.03-3.49-1.74-2.81-.92.36-1.56,1.35-1.59,2.32-.01.48.2,1.2.63,1.45Z"/>
        <path class="cls-1" d="M45.62,108.87c-.78-.53-2.27-.04-2.86.61-1.19,1.31-.52,3.28,1.33,3.02,1.93-.27,2.69-2.83,1.53-3.63Z"/>
        <path class="cls-1" d="M38.32,104.19c-1.33-.97-3.28,1-2.88,2.61.44,1.82,2.89,1.28,3.4-.44.18-.62.04-1.76-.52-2.16Z"/>
      </g>
    </g>
  </g>
</svg>