<?xml version="1.0" encoding="UTF-8"?>
<svg id="Layer_2" data-name="Layer 2" xmlns="http://www.w3.org/2000/svg" viewBox="0 0 115.64 122.45">
  <defs>
    <style>
      .cls-1 {
        fill: #406f6f;
      }

      .cls-1, .cls-2, .cls-3, .cls-4, .cls-5 {
        stroke-width: 0px;
      }

      .cls-2 {
        fill: #224040;
      }

      .cls-3 {
        fill: #a7c1c0;
      }

      .cls-4 {
        fill: #597a79;
      }

      .cls-5 {
        fill: #f2f2f2;
      }
    </style>
  </defs>
  <g id="Layer_1-2" data-name="Layer 1">
    <g>
      <path class="cls-5" d="M96.63,106.15c-2.79,6.2-9.53,10.59-16.12,11.8-10.56,1.95-14.13-3.91-22.52-1.31-5.39,1.67-12.52,8.58-26.19,4.59-12.49-5.16-17.96-17.42-14.1-30.36,3.04-10.15,10.1-9.17,12.83-10.07,6.63-2.17,5.08-14.3,11.58-23.44,8.74-12.29,26.41-12.81,35.49,1.3,3.01,4.68,4.26,10.19,6.82,15.04,3.47,6.58,5.46,4.08,9.4,6.77,7.27,4.97,5.95,18.68,2.81,25.67Z"/>
      <path class="cls-3" d="M76.65,80.66c1.3,3.22,2.89,7.69-.2,10.42-3.21,2.84-7.14.17-7.61.24-8.31,6.54-31.64,17.18-41.4,12.67-3.02-1.4-3.47-3.59-4.03-4.4-.86-4.68,1-8.96,4.36-12.18,2.6-1.5,5.54-1.97,8.16-3.52,9.48-5.62,6.14-19.81,14.61-23.78,5.79-2.71,12.24-.46,16.48,3.88,3.01,3.07,7.97,12.55,9.63,16.67Z"/>
      <path class="cls-1" d="M27.76,87.41c-3.36,3.22-5.22,7.5-4.36,12.18-1.29-1.87-.96,1.16.83,3.78,7.69,11.25,25.98,2.13,36.19-.63,6.04-1.63,20.49-3.72,23.24-7.57,2.58-3.6-.32-6.25-2.36-8.95l2.41-4.89c3.57,2.63,7.29,3.26,9.4,7.88,3.73,8.18-1.12,20.14-10.76,23.03-9.93,2.98-16.33-3.69-26.55-.34-4.57,1.5-14.02,9.38-25.39,3.38-9.81-5.17-12.24-22.33-2.65-27.87Z"/>
      <path class="cls-2" d="M83.72,81.33l-2.41,4.89c-1.43-1.89-3.05-3.81-4.66-5.56-1.66-4.12-6.62-13.6-9.63-16.67-4.24-4.34-10.69-6.59-16.48-3.88-8.47,3.97-5.13,18.15-14.61,23.78,7.51-6.43,5.83-17.64,12.69-24.63,6.13-6.24,15.83-5.96,21.89.24,6.45,6.6,6.21,16.67,13.21,21.83Z"/>
      <path class="cls-4" d="M81.31,86.22c2.04,2.7,4.94,5.34,2.36,8.95-2.76,3.85-17.21,5.94-23.24,7.57-10.2,2.76-28.49,11.88-36.19.63-1.79-2.62-2.12-5.64-.83-3.78.56.81,1.01,3.01,4.03,4.4,9.77,4.51,33.09-6.12,41.4-12.67.47-.07,4.4,2.6,7.61-.24,3.09-2.73,1.5-7.2.2-10.42,1.61,1.75,3.23,3.66,4.66,5.56Z"/>
      <path class="cls-5" d="M74.6,43.35c-7.98-.43-15.65-11.83-16.72-19.24-.67-.02.86,6.49-2.29,13.04-2.58,5.35-9.1,10.17-15.23,9.42-6.84-1.83-14.56-11.18-15.94-18-3.15-15.54,10.23-32.88,24.09-23.64,5.39,3.59,7.96,9.87,9.12,16,1.07-18.45,18.51-28.79,29.37-13.61,5.63,7.86,5.56,19.44.54,27.56-2.46,3.98-8.06,8.74-12.95,8.47Z"/>
      <path class="cls-2" d="M40.32,6.71c11.85-.29,18.9,22.07,9.32,31.91-11.19,11.49-27.4-6.1-19.5-23.39,1.68-3.67,5.86-8.41,10.18-8.52Z"/>
      <path class="cls-3" d="M47.56,17.04c-.91,6.51-4.39,9.12-3.48,17.46-2.94-4.79-7.02-5.28-9.02-6.5l-3.82-6.29c-1.56-10.42,10.16-14.69,16.31-4.67Z"/>
      <path class="cls-1" d="M44.08,34.5c-.91-8.34,2.57-10.96,3.48-17.46,1.2.01,3.32,3.55,3.77,4.78,2.39,6.52.42,14.6-5.82,18.16-.54.02.71-2.01-1.42-5.48Z"/>
      <path class="cls-2" d="M74.5,4.27c7.98.08,13.54,10.85,12.52,20.44-1.45,13.72-14.94,19.81-22.26,8.2-7.95-12.6,1.4-28.72,9.74-28.64Z"/>
      <path class="cls-3" d="M81.97,15.73c-3.57,5.51-6.39,8.05-5.69,15.25-3.51-6.58-8.73-4.71-10.64-10.34-3-8.87,5.87-16.25,13.25-9.4,1.49,1.38,2.08,2.9,3.08,4.49Z"/>
      <path class="cls-1" d="M76.28,30.97c-.7-7.2,2.12-9.74,5.69-15.25.08.14,1.28,1.23,1.87,2.59,2.73,6.26.56,15.31-5.85,18.64l-.38-.26c.26-1.99-.4-3.96-1.33-5.71Z"/>
      <path class="cls-5" d="M14.76,29.85c9.24-.19,18.77,11.9,20.12,20.35,2.74,17.11-13.35,29.67-27.13,17.57C-6.61,55.16.9,30.14,14.76,29.85Z"/>
      <g>
        <path class="cls-2" d="M15.07,34.3c10.59-.28,22.5,20.38,12.08,30.85-6.36,6.4-15.11,3.81-19.7-3.16-7.62-11.56-.9-27.45,7.62-27.68Z"/>
        <path class="cls-3" d="M23.3,44.07c.73,2.34-4.02,9.96-1.5,16.34-3.8-4.59-7.61-3.5-10.98-5.7l-3.15-4.5c-3.08-8.92,4.74-15.44,13.06-8.86.76.6,1.9,1.92,2.57,2.72Z"/>
        <path class="cls-1" d="M21.81,60.41c-2.52-6.38,2.23-14,1.5-16.34,7.59,4.19,8.61,17.36.56,21.87-.28-.12.24-2.76-2.05-5.53Z"/>
      </g>
      <g>
        <path class="cls-5" d="M99.63,30.76c16.13-.76,21.43,25.82,9.6,36.83-13.41,12.48-30.56-5.11-25.46-21.93,1.84-6.07,9.11-14.59,15.87-14.91Z"/>
        <g>
          <path class="cls-2" d="M100.11,35.07c12.42-.51,16.35,25.27,3.56,31.73-10.81,5.46-21.65-9.34-14.73-22.65,1.87-3.6,6.88-8.9,11.17-9.08Z"/>
          <path class="cls-3" d="M106.61,44.71c-3.92,5.97-6.75,8.02-5.9,16.02-2.62-5.65-7.6-5.44-9.23-8.02-4.67-7.43,5.27-21.85,15.13-8Z"/>
          <path class="cls-1" d="M100.71,60.73c-.84-8,1.98-10.06,5.9-16.02,1.55,2.18,2.75,3.95,2.99,6.78.54,6.3-1.94,12.1-7.94,14.69-.22-.19.59-2.13-.95-5.45Z"/>
        </g>
      </g>
    </g>
  </g>
</svg>