<?xml version="1.0" encoding="UTF-8"?>
<svg id="Layer_2" data-name="Layer 2" xmlns="http://www.w3.org/2000/svg" xmlns:xlink="http://www.w3.org/1999/xlink" viewBox="0 0 42.82 52.44">
  <defs>
    <style>
      .cls-1 {
        stroke: url(#linear-gradient-2);
      }

      .cls-1, .cls-2 {
        fill: none;
        stroke-miterlimit: 10;
      }

      .cls-3 {
        fill: url(#linear-gradient);
      }

      .cls-3, .cls-4, .cls-5 {
        stroke-width: 0px;
      }

      .cls-2 {
        stroke: #f2f2f2;
        stroke-linecap: round;
      }

      .cls-4 {
        fill: url(#radial-gradient);
      }

      .cls-5 {
        fill: #f2f2f2;
      }
    </style>
    <linearGradient id="linear-gradient" x1="9.46" y1="36.82" x2="42.79" y2="36.82" gradientUnits="userSpaceOnUse">
      <stop offset=".08" stop-color="#969696"/>
      <stop offset=".13" stop-color="#a6a6a6"/>
      <stop offset=".24" stop-color="#c1c1c1"/>
      <stop offset=".35" stop-color="#d7d7d7"/>
      <stop offset=".48" stop-color="#e6e6e6"/>
      <stop offset=".63" stop-color="#efefef"/>
      <stop offset=".86" stop-color="#f2f2f2"/>
    </linearGradient>
    <linearGradient id="linear-gradient-2" x1="6.78" y1="12.32" x2="20.46" y2="12.32" gradientTransform="translate(2.49 -1.78) rotate(30)" xlink:href="#linear-gradient"/>
    <radialGradient id="radial-gradient" cx="21.64" cy="24.5" fx="21.64" fy="24.5" r="1.07" gradientUnits="userSpaceOnUse">
      <stop offset=".02" stop-color="#f2f2f2"/>
      <stop offset=".27" stop-color="#eee"/>
      <stop offset=".46" stop-color="#e5e5e5"/>
      <stop offset=".63" stop-color="#d5d5d5"/>
      <stop offset=".79" stop-color="#bebebe"/>
      <stop offset=".93" stop-color="#a1a1a1"/>
      <stop offset=".98" stop-color="#969696"/>
    </radialGradient>
  </defs>
  <g id="Layer_1-2" data-name="Layer 1">
    <g>
      <g>
        <ellipse class="cls-2" cx="16.81" cy="9.38" rx="5.02" ry="9.22" transform="translate(-2.11 5.86) rotate(-18.61)"/>
        <path class="cls-3" d="M15.29,21.2s6.39.57,7.88,3.06,19.62,28.18,19.62,28.18l-23.52-26.3s-6.23-1.94-9.82-3.97c0,0,4.78,2.48,5.83-.97Z"/>
        <path class="cls-5" d="M19.44,18.01s-1.05,6.33,1,8.39,22.39,26.04,22.39,26.04l-19.59-29.34s-.32-6.52-1.39-10.5c0,0,1.21,5.24-2.4,5.41Z"/>
        <ellipse class="cls-1" cx="8.13" cy="15.69" rx="5.02" ry="9.22" transform="translate(-8.97 11.24) rotate(-48.01)"/>
      </g>
      <circle class="cls-4" cx="21.64" cy="24.5" r="1.07"/>
    </g>
  </g>
</svg>