<?xml version="1.0" encoding="UTF-8"?>
<svg id="Layer_2" data-name="Layer 2" xmlns="http://www.w3.org/2000/svg" viewBox="0 0 16.27 16.42">
  <defs>
    <style>
      .cls-1 {
        stroke-linecap: round;
      }

      .cls-1, .cls-2 {
        fill: none;
        stroke: #f2f2f2;
        stroke-miterlimit: 10;
      }

      .cls-3 {
        fill: #f2f2f2;
        stroke-width: 0px;
      }
    </style>
  </defs>
  <g id="Layer_1-2" data-name="Layer 1">
    <g>
      <path class="cls-2" d="M12.78,6.64c0,1.62-.63,3.1-1.66,4.2-1.12,1.2-2.71,1.94-4.48,1.94-3.39,0-6.14-2.75-6.14-6.14S3.25.5,6.64.5s6.14,2.75,6.14,6.14Z"/>
      <line class="cls-1" x1="10.99" y1="11.15" x2="15.77" y2="15.92"/>
      <g>
        <path class="cls-3" d="M4.52,8.86c.13.33.47.57.8.64.54.12.73-.17,1.16-.02.27.1.62.47,1.34.3.65-.24.96-.85.79-1.53-.13-.53-.5-.49-.64-.55-.34-.13-.23-.75-.54-1.23-.42-.65-1.33-.72-1.83-.01-.17.23-.24.51-.38.76-.19.33-.29.2-.5.33-.38.24-.35.95-.2,1.31Z"/>
        <path class="cls-3" d="M5.79,5.68c.41,0,.83-.57.9-.95.03,0-.06.33.09.68.12.28.44.54.76.52.36-.08.77-.54.86-.89.2-.79-.45-1.71-1.18-1.27-.29.17-.43.49-.51.8-.01-.95-.89-1.52-1.48-.77-.31.39-.33.99-.09,1.41.12.21.39.47.65.46Z"/>
        <path class="cls-3" d="M8.9,5.12c-.47-.03-.99.57-1.08,1-.18.87.62,1.55,1.35.96.77-.62.44-1.92-.27-1.96Z"/>
        <path class="cls-3" d="M4.54,4.98c-.83-.08-1.16,1.28-.58,1.87.66.67,1.58-.19,1.36-1.07-.08-.32-.44-.77-.78-.8Z"/>
      </g>
    </g>
  </g>
</svg>